<svg width="512" height="512" viewBox="0 0 512 512" fill="none" xmlns="http://www.w3.org/2000/svg">
<g clip-path="url(#clip0_1510_5163)">
<path d="M0 0H0.16592H13.6588H44.7255H45.6497H83.4352H84.4102H121.027H122.019H158.546H158.774H159.607H196.424H197.305H233.937H234.828H244.152H266.775H276.217H277.255H313.997H314.957H351.94H352.922H390.217H390.98H391.168H427.775H428.647H465.72H466.57H512V7.97328V31.6095V51.2965V51.9155V79.8217V80.778V118.369V119.346V157.589V158.504V196.375V197.456V207.682V208.965V233.794V234.852V245.178V265.587V275.555V276.742V301.927V302.568V312.733V313.913V351.547V352.605V379.922V380.625V391.46V391.8V392.415V430.505V431.725V458.288V458.875V469.332V470.487V512H466.547H465.807H428.67H428.117H427.87H391.27H390.323H353.035H352.245H315.12H314.355H277.22H276.802H276.49H267.172H244.261H234.76H233.83H197.185H196.428H159.491H158.657H122.195H121.338H84.3727H83.4948H45.899H44.9787H0V496.902V496.345V470.258V469.3V431.147V430.21V392.247V391.195V380.777V379.67V352.747V351.703V341.415V340.305V276.737V275.503V265.703V251.628V250.178V245.191V234.669V233.498V208.632V207.76V197.426V196.326V158.3V157.09V119.262V118.352V80.5813V79.5352V41.0665V39.817V0Z" fill="#2C0E6B"/>
<path d="M0 0H0.16592H13.6588H44.7255H45.6497H83.4352H84.4102H121.027H122.019H158.546H158.774H159.607H196.424H197.305H233.937H234.828H244.152H266.775H276.217H277.255H313.997H314.957H351.94H352.922H390.217H390.98H391.168H427.775H428.647C428.627 6.63915 428.523 14.3175 428.758 20.885C434 17.1304 439.293 13.4437 444.63 9.82568C448.055 7.49887 453.275 4.13133 456.465 1.64257L456.427 16.7316C450.665 20.4333 443.423 23.8668 437.325 27.1787L395.818 49.5223L364.348 66.4013C361.348 67.998 353.975 72.2948 351.318 73.356C348.348 73.084 343.55 73.2285 340.453 73.223L319.515 73.2243C317.483 73.226 310.825 73.3745 309.215 73.0125C309.5 72.6772 309.433 72.788 309.51 72.631L309.508 72.597C309.345 72.6078 308.602 73.1162 308.36 73.2542L284.983 73.2515C280.97 73.2573 275.668 73.4105 271.75 73.1825C271.403 73.4963 271.097 73.8322 270.777 74.1722L270.938 72.6175L270.285 73.1888C261.57 73.3405 251.935 73.308 243.219 73.1687C239.818 76.8822 234.783 83.826 231.447 88.0202L203.475 123.773L190.6 140.394C188.355 143.244 184.599 147.628 182.825 150.527C174.305 141.402 161.344 142.978 151.896 149.761C149.814 151.426 146.858 154.181 144.689 155.603C135.88 156.421 128.47 158.201 120.644 162.547C105.926 170.72 96.8793 187.992 97.009 204.734C98.7958 201.433 100.166 199.317 102.443 196.327C97.3165 210.79 95.2805 224.896 93.9465 240.145C93.7825 241.966 93.7105 246.699 93.3528 248.189L93.205 251.775C92.9745 255.432 92.8835 258.992 92.7477 262.647C91.4115 263.83 83.4078 274.9 81.8945 276.945L60.2007 306.025C59.3045 305.58 35.282 305.772 32.1333 305.78C31.0308 306.787 25.865 311.755 24.8344 311.975L24.6991 311.58L24.4746 311.432C24.358 312.09 24.2906 312.118 24.3504 312.758C24.6026 313.253 24.5318 313.35 24.204 313.795C23.6473 315.31 2.90625 337.343 0.186689 340.228L0 340.305V276.737V275.503V265.703V251.628V250.178V245.191V234.669V233.498V208.632V207.76V197.426V196.326V158.3V157.09V119.262V118.352V80.5813V79.5352V41.0665V39.817V0Z" fill="#FCC042"/>
<path d="M233.937 0H234.828H244.152H266.775H276.217H277.255H313.997H314.957H351.94H352.922H390.217H390.98H391.167H427.775H428.647C428.627 6.63915 428.522 14.3175 428.757 20.885C434 17.1304 439.292 13.4437 444.63 9.82568C448.055 7.49887 453.275 4.13133 456.465 1.64257L456.427 16.7316C450.665 20.4333 443.422 23.8668 437.325 27.1787L395.817 49.5223L364.347 66.4013C361.347 67.998 353.975 72.2948 351.317 73.356C348.347 73.084 343.55 73.2285 340.452 73.223L319.515 73.2243C317.482 73.226 310.825 73.3745 309.215 73.0125C309.5 72.6772 309.432 72.788 309.51 72.631L309.507 72.597C309.345 72.6078 308.602 73.1162 308.36 73.2542L284.982 73.2515C280.97 73.2573 275.667 73.4105 271.75 73.1825C271.402 73.4963 271.097 73.8322 270.777 74.1722L270.937 72.6175L270.285 73.1888C261.57 73.3405 251.935 73.308 243.218 73.1687C250.54 63.6097 257.917 54.0945 265.35 44.6232L264.93 44.1603C257.807 53.1628 248.717 64.6208 241.137 73.1695C233.602 73.3143 225.85 73.2133 218.311 73.1718L244.865 26.633L244.459 26.1978C235.901 41.3495 225.388 58.2563 216.275 73.177C209.909 73.2158 203.542 73.2143 197.175 73.1725C200.867 64.8063 204.719 54.7393 208.107 46.1828C212.711 34.7513 217.226 23.2831 221.649 11.78C222.993 12.4384 232.717 19.2184 234.015 20.277L233.937 0Z" fill="#7522DF"/>
<path d="M314.957 0H351.94C351.945 2.68473 351.805 19.1833 352.122 20.6137C351.185 20.9157 343.988 25.5442 342.728 26.3375L342.642 1.41398C340.032 3.4713 317.095 19.5024 315.022 20.1829C315.12 13.5214 314.935 6.68608 314.957 0Z" fill="#2C0E6B"/>
<path d="M277.255 0H313.997H314.957C314.935 6.68608 315.12 13.5214 315.022 20.1829C314.78 20.3916 314.55 20.5854 314.3 20.7872C311.447 22.8883 307.82 25.1623 304.77 27.346L304.712 0C300.412 2.65022 294.367 7.46502 289.992 10.4874C287.335 12.3231 279.327 17.8373 277.245 19.7175C277.18 13.1873 277.25 6.5397 277.255 0Z" fill="#2C0E6B"/>
<path d="M313.998 0H314.958C314.935 6.68608 315.12 13.5214 315.023 20.1829C314.78 20.3916 314.55 20.5854 314.3 20.7872C313.903 14.7518 314.06 6.1342 313.998 0Z" fill="#9612E7"/>
<path d="M391.167 0H427.775L427.757 21.4834C424.705 23.431 421.61 25.3142 418.477 27.132L418.427 0.60275C415.827 2.80827 410.417 6.46875 407.502 8.53995C402.292 12.2427 396.552 16.5549 391.215 19.9521C391.24 13.3013 391.222 6.65053 391.167 0Z" fill="#2C0E6B"/>
<path d="M352.922 0H390.217C390.245 5.67233 390.172 11.6634 390.307 17.3086C390.295 18.4412 390.27 19.5965 390.275 20.7266L380.967 26.579C380.922 17.8218 380.925 9.06437 380.975 0.30716C371.852 6.6633 362.15 13.7588 352.985 19.8457C353.032 13.2696 352.945 6.58455 352.922 0Z" fill="#2C0E6B"/>
<path d="M266.775 0H276.217C276.227 6.34268 276.065 13.8245 276.352 20.073C275.845 21.0211 268.312 25.3677 266.797 26.2795L266.775 0Z" fill="#2C0E6B"/>
<path d="M234.828 0H244.152C244.402 7.80403 244.237 17.8178 244.21 25.7975C241.003 24.0244 238.195 22.6923 234.953 20.7484C234.887 16.2411 235.192 7.08488 234.792 2.99172C234.878 2.02609 234.821 0.983667 234.828 0Z" fill="#2C0E6B"/>
<path d="M283.342 60.7843L283.575 61.3171C279.577 65.2293 275.71 69.2408 271.75 73.1826C271.402 73.4963 271.097 73.8323 270.777 74.1723L270.937 72.6176C274.2 69.2143 279.847 64.0768 283.342 60.7843Z" fill="#ECAE51"/>
<path d="M283.342 60.7842C285.335 58.5645 290.262 53.8555 292.442 51.9172L292.817 52.1117C290.08 54.498 286.335 58.6705 283.575 61.317L283.342 60.7842Z" fill="#E89684"/>
<path d="M294.38 49.8553C294.817 49.207 300.405 43.771 300.677 43.8188C300.905 44.3935 293.607 51.4273 292.817 52.1118L292.442 51.9173L292.515 51.8465C293.087 51.0293 293.662 50.5465 294.38 49.8553Z" fill="#983FBB"/>
<path d="M294.38 49.8552C293.995 50.924 293.578 51.4187 292.515 51.8465C293.088 51.0292 293.663 50.5465 294.38 49.8552Z" fill="#A75BA9"/>
<path d="M252.457 12.0178L253.17 11.6332L252.937 12.057C251.737 14.2787 247.887 21.614 246.684 23.3375L246.167 23.149C247.052 21.4921 247.983 19.8601 248.958 18.2549C249.874 16.7213 251.84 13.5877 252.457 12.0178Z" fill="#C07A94"/>
<path d="M278.623 26.838C278.608 27.1108 278.595 27.3835 278.588 27.6565C276.183 30.122 273.91 34.0403 271.53 36.7748L271.408 36.1305C271.76 35.6048 272.435 34.6258 272.845 34.1593C274.888 31.8123 276.815 29.369 278.623 26.838Z" fill="#A75BA9"/>
<path d="M268.95 39.2008L269.24 39.3081C269.11 39.6023 268.983 39.8978 268.86 40.1946C267.773 41.3943 266.418 43.3003 265.35 44.6233L264.93 44.1603C266.145 42.4996 267.645 40.8251 268.95 39.2008Z" fill="#F89D69"/>
<path d="M252.458 12.0177C252.693 11.4538 255.695 6.01604 255.915 5.79034L256.05 5.82491L256.058 5.73866L256.09 5.71729C256.423 6.10441 253.685 11.1753 253.17 11.6332L252.458 12.0177Z" fill="#983FBB"/>
<path d="M246.168 23.1489L246.684 23.3375C246.12 24.3776 245.493 25.6677 244.865 26.633L244.459 26.1977C244.94 25.2027 245.62 24.1514 246.168 23.1489Z" fill="#F89D69"/>
<path d="M268.95 39.2007C269.708 38.164 270.61 37.1507 271.408 36.1305L271.53 36.7747C270.893 37.5187 270.078 38.5905 269.5 39.3955L269.24 39.308L268.95 39.2007Z" fill="#C07A94"/>
<path d="M278.622 26.838C278.762 26.5795 279.262 25.598 279.68 25.8175C279.94 26.211 278.88 27.3693 278.587 27.6565C278.595 27.3835 278.607 27.1108 278.622 26.838Z" fill="#983FBB"/>
<path d="M0 0H0.16592H13.6588H44.7255H45.6497C45.616 0.52729 45.5778 1.0543 45.5358 1.581C45.7888 3.16535 45.6937 6.39567 45.7127 8.0749C45.76 12.293 45.665 16.5577 45.7308 20.7792C47.01 21.5511 53.9405 25.0578 54.312 25.6968L54.9748 26.039C55.471 27.1617 56.1932 28.3642 56.8097 29.4492C58.1747 31.7785 59.4533 33.9645 60.7635 36.327L60.4217 36.858C62.8927 41.1398 65.3032 45.5523 67.626 49.9193C71.75 57.6723 76.3805 65.2753 80.4415 73.0433C79.1267 73.396 74.1365 73.279 72.545 73.2765L57.4782 73.2495C51.2052 65.8272 44.5907 57.0708 38.6012 49.3363L38.241 49.7547C44.1248 57.446 49.944 65.1865 55.6978 72.9758C54.2253 73.5965 27.825 73.2253 24.105 73.2375L23.9552 73.1405L23.4621 73.5938L22.92 73.2042C21.3216 73.257 19.7197 73.2397 18.1199 73.2465C19.7917 75.3062 21.6703 77.7375 23.4339 79.6787C21.0419 79.8457 16.7282 79.6737 14.1946 79.6352C9.4633 79.5752 4.73168 79.5417 0 79.5352L0 41.0665V39.817V0Z" fill="#7522DF"/>
<path d="M0 41.0665C7.36048 41.0223 17.3437 41.353 24.3517 40.9518C24.5086 43.7405 25.6533 48.3108 26.0865 51.399L0.265532 51.2475C0.715573 51.7653 2.86107 54.2968 3.2366 54.5718C3.63525 55.0898 3.84595 55.3625 4.29817 55.8285C5.69015 58.0423 9.0535 62.0495 10.8032 64.2193C12.929 66.8553 15.8803 70.833 18.1199 73.2465C19.7917 75.3063 21.6703 77.7375 23.4339 79.6788C21.0419 79.8458 16.7282 79.6738 14.1946 79.6353C9.4633 79.5753 4.73168 79.5418 0 79.5353L0 41.0665Z" fill="#2C0E6B"/>
<path d="M0 0H0.16592C0.95136 4.6755 2.28127 7.76635 2.26943 12.5722C9.04528 21.7134 16.7115 31.0658 23.8181 40.0158C15.8867 39.8695 7.9849 40.017 0 39.817V0Z" fill="#2C0E6B"/>
<path d="M13.6587 0H44.7254H45.6496C45.6159 0.52729 45.5776 1.0543 45.5356 1.581C44.9149 4.43983 45.9206 19.4245 45.3511 20.5884C45.1141 20.6271 44.9174 20.4117 44.7446 20.2806C43.7246 19.9557 37.3001 15.497 36.0834 14.6946L13.6587 0Z" fill="#2C0E6B"/>
<path d="M44.7256 0H45.6498C45.6161 0.52729 45.5778 1.0543 45.5358 1.581C44.9151 4.43983 45.9208 19.4245 45.3513 20.5884C45.1143 20.6271 44.9176 20.4117 44.7448 20.2806L44.7256 0Z" fill="#9612E7"/>
<path d="M4.29834 55.8285C6.44739 57.3855 7.55172 58.8057 9.40964 60.3102C10.7579 61.5247 12.0678 62.8962 13.4245 64.0482C16.5715 66.9932 19.7865 70.201 22.9202 73.2042C21.3217 73.257 19.7199 73.2397 18.12 73.2465C15.8805 70.833 12.9292 66.8552 10.8034 64.2192C9.05366 62.0495 5.69031 58.0422 4.29834 55.8285Z" fill="#7522DF"/>
<path d="M13.6511 63.5847C16.4628 66.1817 21.4801 70.5642 23.9552 73.1405L23.462 73.5937L22.92 73.2042C19.7863 70.201 16.5713 66.9932 13.4243 64.0482L13.6511 63.5847Z" fill="#F89D69"/>
<path d="M30.7459 40.002C29.5469 38.7768 27.5409 35.9543 26.4621 34.5258L25.7146 33.5258C25.2011 32.8428 21.6163 28.362 21.8833 27.9458C22.1315 27.884 23.7526 29.98 23.9172 30.245C25.7791 33.2423 29.1634 36.427 30.9114 39.3535L30.7459 40.002Z" fill="#983FBB"/>
<path d="M30.9116 39.3535C32.9358 42.4825 36.4366 46.0693 38.6013 49.3363L38.2411 49.7548C36.2876 47.3503 32.5928 41.9738 30.7461 40.002L30.9116 39.3535Z" fill="#E89684"/>
<path d="M56.8098 29.4492C58.1748 31.7785 59.4533 33.9645 60.7636 36.327L60.4218 36.858C59.0926 34.5965 57.6278 31.9265 56.3726 29.613L56.8098 29.4492Z" fill="#E89684"/>
<path d="M3.23682 54.5718C4.49972 55.2255 8.66542 58.7783 9.50084 59.8915L9.40969 60.3103C7.55177 58.8058 6.44744 57.3855 4.29839 55.8285C3.84617 55.3625 3.63547 55.0898 3.23682 54.5718Z" fill="#A75BA9"/>
<path d="M9.50082 59.8915C10.2439 60.4447 13.0681 62.91 13.6514 63.5847L13.4245 64.0482C12.0678 62.8962 10.7579 61.5247 9.40967 60.3102L9.50082 59.8915Z" fill="#C07A94"/>
<path d="M54.312 25.6968L54.9748 26.039C55.471 27.1618 56.1933 28.3643 56.8098 29.4493L56.3725 29.613C55.708 28.6425 54.7478 26.7995 54.312 25.6968Z" fill="#C07A94"/>
<path d="M1.96601 300.663C2.93998 300.67 15.8741 291.58 17.4593 290.515C31.8929 280.808 46.3937 271.198 60.9604 261.69L79.6177 249.513C84.3404 246.458 89.3709 243.345 93.9464 240.145C93.7824 241.966 93.7104 246.699 93.3527 248.189L93.2049 251.775C92.9744 255.433 92.8834 258.993 92.7477 262.648C91.4114 263.83 83.4077 274.9 81.8944 276.945L60.2006 306.025C59.3044 305.58 35.2819 305.773 32.1332 305.78C31.0307 306.788 25.8649 311.755 24.8343 311.975L24.699 311.58L24.4746 311.433C24.5427 310.9 24.6284 310.508 24.7127 309.998C24.931 308.715 25.1767 307.438 25.4499 306.165L26.1799 302.558C17.839 302.378 8.36908 302.485 0.0258789 302.613L1.96601 300.663Z" fill="#F89D69"/>
<path d="M32.1333 305.78L74.8373 267.95C80.0765 263.335 87.8513 255.903 93.2051 251.775C92.9746 255.433 92.8835 258.993 92.7478 262.648C91.4115 263.83 83.4078 274.9 81.8946 276.945L60.2008 306.025C59.3045 305.58 35.2821 305.773 32.1333 305.78Z" fill="#F89D69"/>
<path d="M30.531 306.312L61.494 277.235C64.6402 274.265 91.5212 248.441 93.102 247.804L93.3527 248.188L93.205 251.775C87.8512 255.902 80.0765 263.335 74.8372 267.95L32.1332 305.78C31.0307 306.787 25.865 311.755 24.8343 311.975L24.699 311.58L24.4746 311.432C24.5428 310.9 24.6284 310.507 24.7128 309.997C24.9311 308.715 25.1767 307.437 25.45 306.165C26.7257 306.135 29.5042 305.83 30.531 306.312Z" fill="#FCC042"/>
<path d="M25.45 306.165C26.7257 306.135 29.5042 305.83 30.531 306.313C29.1202 307.73 27.6545 309.093 26.137 310.395C25.5745 310.875 25.327 311.16 24.699 311.58L24.4746 311.433C24.5428 310.9 24.6284 310.508 24.7128 309.998C24.9311 308.715 25.1767 307.438 25.45 306.165Z" fill="#E89684"/>
<path d="M45.6496 0H83.4351C83.4576 2.84485 83.9209 15.9292 83.3384 18.0026C83.5539 19.1382 83.8121 19.7071 84.2414 20.7594C84.3271 21.0115 84.4104 21.2647 84.4906 21.5186L84.0144 21.7608C89.9249 38.8322 96.3226 56.2145 102.459 73.23L82.2531 73.2305C75.0049 60.979 67.8416 48.6775 60.7634 36.327C59.4531 33.9645 58.1746 31.7785 56.8096 29.4492C56.1931 28.3642 55.4709 27.1617 54.9746 26.039L54.3119 25.6968C53.9404 25.0578 47.0099 21.5511 45.7306 20.7792C45.6649 16.5577 45.7599 12.293 45.7126 8.0749C45.6936 6.39567 45.7886 3.16535 45.5356 1.581C45.5776 1.0543 45.6159 0.52729 45.6496 0Z" fill="#7522DF"/>
<path d="M45.6496 0H83.4351C83.4576 2.84485 83.9209 15.9292 83.3384 18.0026L82.5544 17.6586L82.2131 17.7231C82.0674 18.4314 82.1606 18.7524 82.2606 19.4579L81.9551 19.6459C79.2041 18.1438 74.7446 14.9517 72.0261 13.1273C66.3241 9.33738 60.6424 5.5171 54.9814 1.6666C54.9821 9.47695 55.1969 18.3383 54.9746 26.039L54.3119 25.6968C53.9404 25.0578 47.0099 21.5511 45.7306 20.7792C45.6649 16.5577 45.7599 12.293 45.7126 8.0749C45.6936 6.39567 45.7886 3.16535 45.5356 1.581C45.5776 1.0543 45.6159 0.52729 45.6496 0Z" fill="#2C0E6B"/>
<path d="M82.5547 17.6586L83.3387 18.0026C83.5542 19.1381 83.8124 19.707 84.2417 20.7593C84.3274 21.0115 84.4107 21.2646 84.4909 21.5186L84.0147 21.7608C83.4214 20.4336 82.9334 19.062 82.5547 17.6586Z" fill="#F89D69"/>
<path d="M23.4339 79.6788C23.8013 80.0598 23.9009 80.1645 24.2225 80.5793C24.7908 84.0223 25.4048 87.4578 26.0645 90.8845C20.2921 90.8918 13.3493 91.0573 7.66575 90.8015C8.56325 91.6088 9.01043 91.9708 9.98608 92.7283L9.74387 93.048L101.694 161.253L98.8207 165.363C74.78 152.407 49.9135 140.123 25.7035 127.332C25.3853 124.65 25.0188 121.975 24.6038 119.306C24.3846 118.874 24.3673 118.742 24.0347 118.424C16.4248 118.569 7.60698 118.488 0 118.352V80.5813V79.5353C4.73168 79.5418 9.4633 79.5753 14.1946 79.6353C16.7282 79.6738 21.0419 79.8458 23.4339 79.6788Z" fill="#F94294"/>
<path d="M23.4339 79.6788C23.8013 80.0598 23.9009 80.1645 24.2225 80.5793C24.7908 84.0223 25.4048 87.4578 26.0645 90.8845C20.2921 90.8918 13.3493 91.0573 7.66575 90.8015L6.80535 90.8535L0.182965 90.8003C3.27343 94.0298 6.30643 97.7073 9.24683 101.109L24.0347 118.424C16.4248 118.569 7.60698 118.488 0 118.352V80.5813V79.5353C4.73168 79.5418 9.4633 79.5753 14.1946 79.6353C16.7282 79.6738 21.0419 79.8458 23.4339 79.6788Z" fill="#2C0E6B"/>
<path d="M23.4339 79.6788C23.8013 80.0598 23.9009 80.1645 24.2225 80.5793C17.6823 80.9648 6.9616 80.5935 0 80.5813V79.5353C4.73168 79.5418 9.4633 79.5753 14.1946 79.6353C16.7282 79.6738 21.0419 79.8458 23.4339 79.6788Z" fill="#F93E9C"/>
<path d="M6.80518 90.8535L7.66558 90.8015C8.56308 91.6088 9.01025 91.9708 9.9859 92.7283L9.7437 93.048C8.84895 92.5295 7.43013 91.6565 6.80518 90.8535Z" fill="#F89D69"/>
<path d="M83.4351 0H84.4101H121.027C121.05 3.49747 121.014 7.12275 121.082 10.6101C121.062 13.9005 121.066 17.191 121.094 20.4813C117.505 18.0165 113.67 15.1871 110.078 12.8524L109.327 12.3428C111.767 25.0115 114.711 37.9113 117.25 50.6138C118.529 57.0143 120.29 67.064 121.924 73.0375C120.297 73.4867 106.529 73.2677 104.072 73.255L84.4906 21.5186C84.4104 21.2647 84.3271 21.0115 84.2414 20.7594C83.8121 19.7071 83.5539 19.1382 83.3384 18.0026C83.9209 15.9292 83.4576 2.84485 83.4351 0Z" fill="#7522DF"/>
<path d="M84.4102 0H121.027C121.05 3.49747 121.014 7.12275 121.082 10.6101C121.062 13.9005 121.066 17.191 121.094 20.4813C117.505 18.0165 113.67 15.1871 110.078 12.8524L109.327 12.3428C105.005 9.111 98.3224 4.76605 93.6469 1.76462L93.7492 26.5942C91.3702 25.0692 86.7632 21.9075 84.4572 20.6884L84.4102 0Z" fill="#2C0E6B"/>
<path d="M159.607 0H196.424C196.442 5.13783 196.174 15.1742 196.557 19.9917L191.675 16.8357L191.249 16.4401C189.504 21.9009 187.9 28.788 186.381 34.426L176.008 73.2395C174.117 73.244 160.519 73.6578 159.66 72.8298C160.424 60.6018 161.581 48.3462 162.482 36.1242C162.805 31.743 163.091 27.422 163.563 23.049L162.544 22.3565C161.351 21.6981 160.646 21.2977 159.516 20.4861C159.669 18.6265 159.578 15.2079 159.581 13.2339L159.607 0Z" fill="#7522DF"/>
<path d="M159.607 0H196.424C196.442 5.13783 196.174 15.1742 196.557 19.9917L191.675 16.8357L191.249 16.4401C183.797 11.8238 176.368 5.94143 168.951 1.25882L168.934 26.4C167.287 25.3887 165.11 24.137 163.563 23.049L162.544 22.3565C161.351 21.6981 160.646 21.2977 159.516 20.4861C159.669 18.6265 159.578 15.2079 159.581 13.2339L159.607 0Z" fill="#2C0E6B"/>
<path d="M196.425 0H197.305H233.937L234.015 20.277C232.717 19.2184 222.994 12.4384 221.649 11.78L221.257 11.4257C215.829 24.967 210.219 38.4345 204.427 51.8242C201.489 58.6795 198.382 66.5088 195.257 73.2203L177.845 73.2103C181.601 58.6875 184.851 43.976 188.632 29.4513C189.71 25.31 190.778 21.012 191.675 16.8357L196.557 19.9917C196.174 15.1742 196.442 5.13783 196.425 0Z" fill="#7522DF"/>
<path d="M197.305 0H233.937L234.015 20.277C232.717 19.2184 222.993 12.4384 221.649 11.78L221.257 11.4257C216.383 8.1525 211.536 4.84132 206.714 1.49248C206.753 9.53763 206.713 17.583 206.593 25.6273C203.5 23.9773 200.485 22.3847 197.469 20.5952C197.486 15.556 197.44 10.5168 197.329 5.47878C197.406 3.94365 197.315 1.59694 197.305 0Z" fill="#2C0E6B"/>
<path d="M121.027 0H122.019H158.546L158.538 20.0123C151.848 15.0204 144.489 10.211 137.625 5.31595L137.232 5.1623C137.263 6.01938 137.287 6.41847 137.411 7.253C137.931 14.3468 138.096 22.1368 138.387 29.291L140.254 73.203C134.781 73.238 129.307 73.2345 123.834 73.1933C123.297 70.6093 122.664 67.9575 122.055 65.3855C117.928 47.9535 114.489 30.2045 110.079 12.8524C113.67 15.1871 117.505 18.0165 121.095 20.4813C121.066 17.191 121.062 13.9005 121.082 10.6101C121.014 7.12275 121.05 3.49747 121.027 0Z" fill="#7522DF"/>
<path d="M122.019 0H158.546L158.538 20.0123C151.848 15.0204 144.489 10.211 137.625 5.31595L137.232 5.1623C135.617 3.83238 133.279 2.38222 131.45 1.28192L131.442 26.1702C128.252 24.5944 125.097 22.9497 121.978 21.2375C121.975 18.2888 122.065 14.7614 121.952 11.8608C122.134 8.245 121.988 3.71093 122.019 0Z" fill="#2C0E6B"/>
<path d="M121.027 0H122.019C121.988 3.71093 122.134 8.245 121.952 11.8608C121.649 13.3153 121.811 20.4699 121.527 20.7197C121.493 20.7186 121.458 20.7175 121.424 20.7164C121.191 20.3291 121.431 12.2477 121.082 10.6101C121.014 7.12275 121.05 3.49747 121.027 0Z" fill="#9612E7"/>
<path d="M55.6977 72.9757C61.2247 80.0475 66.742 87.688 72.158 94.8877C80.1505 105.345 88.0825 115.848 95.9537 126.396C101.638 134.017 108.456 142.297 113.83 149.873C112.312 150.923 111 151.907 109.539 153.037C101.78 146.035 94.2067 138.646 86.584 131.467L54.496 101.609C47.357 95.0507 40.2595 88.4482 33.2032 81.8015C31.4805 80.1867 25.307 74.681 24.105 73.2375C27.825 73.2252 54.2252 73.5965 55.6977 72.9757Z" fill="#F94294"/>
<path d="M22.9198 73.2042L23.4619 73.5937C36.1113 86.5247 49.0283 98.8745 61.9185 111.521C76.7818 126.386 91.788 141.107 106.936 155.682C105.884 156.694 104.85 157.725 103.833 158.773C99.7483 155.624 94.9555 152.483 90.7038 149.451C79.2978 141.278 67.8158 133.212 56.259 125.254L25.0558 103.266C20.2215 99.8665 14.8749 95.9407 9.98585 92.7282C9.0102 91.9707 8.56303 91.6087 7.66553 90.8015C13.3491 91.0572 20.2919 90.8917 26.0643 90.8845C25.4045 87.4577 24.7906 84.0222 24.2223 80.5792C23.9006 80.1645 23.801 80.0597 23.4337 79.6787C21.6701 77.7375 19.7915 75.3062 18.1196 73.2465C19.7195 73.2397 21.3214 73.257 22.9198 73.2042Z" fill="#F94294"/>
<path d="M0 158.3L25.1623 158.371L25.904 163.598L26.271 165.428C47.142 172.118 68.662 177.807 89.4372 184.451C88.84 186.196 88.435 187.364 88.0547 189.159C72.1907 186.386 54.9758 184.246 38.9378 181.893L19.6824 179.051C16.4424 178.552 11.6183 177.638 8.46795 177.352C8.7809 177.71 9.69618 178.806 9.99413 179.084C13.8196 183.669 17.8976 188.106 21.7711 192.658C22.5217 193.54 23.6467 195.006 24.4841 195.748L24.585 196.351C23.9101 196.568 23.7415 196.521 23.0387 196.516C21.612 196.272 17.3301 196.329 15.6568 196.316C10.4379 196.274 5.2188 196.277 0 196.326L0 158.3Z" fill="#F94294"/>
<path d="M0 158.3L25.1623 158.371L25.904 163.598L26.271 165.428C26.438 166.392 26.6003 167.495 26.8043 168.44C18.0846 168.496 9.36478 168.504 0.64512 168.465C2.6903 170.729 6.62617 175.559 8.46795 177.352C8.7809 177.71 9.69618 178.806 9.99413 179.084C13.8196 183.669 17.8976 188.106 21.7711 192.658C22.5217 193.54 23.6467 195.006 24.4841 195.748L24.585 196.351C23.9101 196.568 23.7415 196.521 23.0387 196.516C21.612 196.272 17.3301 196.329 15.6568 196.316C10.4379 196.274 5.2188 196.277 0 196.326L0 158.3Z" fill="#2C0E6B"/>
<path d="M24.0347 118.424C24.3673 118.742 24.3846 118.874 24.6038 119.306C25.0188 121.975 25.3853 124.65 25.7035 127.332L25.9765 129.233C19.3862 129.719 7.88805 129.492 1.10345 129.385C3.48045 132.165 8.35755 138.287 10.5765 140.539C10.9269 140.959 12.2019 142.545 12.5349 142.8C17.745 144.426 23.021 146.786 28.0697 148.908C34.83 151.688 41.5678 154.524 48.282 157.415L76.6963 169.329C81.946 171.531 87.385 173.685 92.5348 176.072L90.5035 180.86L46.1385 168.979L32.9465 165.534C31.1447 165.063 27.5135 164.211 25.904 163.598L25.1623 158.371L0 158.3V157.091V119.262V118.352C7.60698 118.488 16.4248 118.569 24.0347 118.424Z" fill="#F94294"/>
<path d="M24.0347 118.424C24.3673 118.742 24.3846 118.874 24.6038 119.306C25.0188 121.975 25.3853 124.65 25.7035 127.332L25.9765 129.233C19.3862 129.719 7.88805 129.492 1.10345 129.385C3.48045 132.165 8.35755 138.287 10.5765 140.539C10.9269 140.959 12.2019 142.545 12.5349 142.8C16.4529 147.671 20.4676 152.299 24.4272 157.114C16.3321 157.079 8.05742 157.208 0 157.091V119.262V118.352C7.60698 118.488 16.4248 118.569 24.0347 118.424Z" fill="#2C0E6B"/>
<path d="M24.0347 118.424C24.3673 118.742 24.3846 118.874 24.6038 119.306C16.52 119.128 8.10448 119.258 0 119.262V118.352C7.60698 118.488 16.4248 118.569 24.0347 118.424Z" fill="#F93E9C"/>
<path d="M158.546 0H158.774H159.607L159.581 13.2339C159.578 15.2079 159.669 18.6265 159.516 20.4861C160.646 21.2977 161.351 21.6981 162.544 22.3565C161.027 39.3237 159.37 56.2782 157.573 73.2182L142.209 73.2085C141.095 63.0105 140.729 50.3648 139.998 39.9043C139.499 32.8983 139.043 25.889 138.63 18.8775C138.443 15.8034 137.985 10.681 138.047 7.73615L137.411 7.253C137.287 6.41847 137.263 6.01938 137.231 5.1623L137.624 5.31595C144.489 10.211 151.847 15.0204 158.537 20.0123L158.546 0Z" fill="#7522DF"/>
<path d="M137.231 5.16235L137.624 5.316C137.799 6.2247 137.933 6.80495 138.047 7.7362L137.411 7.25305C137.287 6.41853 137.263 6.01943 137.231 5.16235Z" fill="#E89684"/>
<path d="M0 265.703C4.97127 265.718 11.3006 265.915 16.1626 265.737L18.9235 265.747L25.9855 265.725C25.747 267.713 25.2022 274.43 24.3606 275.682L23.4196 275.91L23.6389 276.795C21.3656 279.468 14.0709 286.673 12.6762 289.005C11.0474 290.448 5.95008 296.16 4.51 297.935C3.46898 298.94 2.8752 299.505 1.96611 300.663L0.025977 302.612C8.36917 302.485 17.8391 302.377 26.18 302.557L25.45 306.165C25.1768 307.438 24.9311 308.715 24.7128 309.997C24.6285 310.507 24.5428 310.9 24.4746 311.432C24.358 312.09 24.2906 312.118 24.3504 312.758C24.6026 313.253 24.5318 313.35 24.204 313.795C23.6473 315.31 2.90625 337.343 0.186689 340.228L0 340.305V276.737V275.503V265.703Z" fill="#2C0E6B"/>
<path d="M0 265.703C4.97127 265.718 11.3006 265.915 16.1626 265.737L18.9235 265.747L25.9855 265.725C25.747 267.713 25.2022 274.43 24.3606 275.682L23.4196 275.91C22.1406 275.58 18.6484 275.685 17.1359 275.658C11.4246 275.543 5.71235 275.493 0 275.503L0 265.703Z" fill="#2C0E6B"/>
<path d="M0 275.502C5.71235 275.492 11.4246 275.542 17.1359 275.657C18.6484 275.685 22.1406 275.58 23.4196 275.91L23.6389 276.795C15.8293 276.65 7.823 276.745 0 276.737L0 275.502Z" fill="#F79586"/>
<path d="M24.3505 312.758C24.6027 313.253 24.5318 313.35 24.2041 313.795C19.5154 313.765 5.78203 314.047 0.368799 313.655C0.215426 313.645 0.217674 313.528 0.143066 313.223C0.221969 313.11 0.223703 313.09 0.317969 313.005C0.873647 312.508 21.9598 312.718 24.3505 312.758Z" fill="#FBB942"/>
<path d="M77.2623 227.895C77.6838 227.798 78.1048 227.698 78.525 227.595C80.016 228.503 83.0387 227.708 84.418 228.222C86.3765 228.278 88.2607 228.217 90.2142 228.392L90.148 228.935C89.0378 229.756 78.588 234.653 76.5015 235.681L45.2347 251.352C41.3392 253.285 17.224 264.487 16.1626 265.737C11.3006 265.915 4.97127 265.717 0 265.702V251.627V250.177V245.19L14.8446 245.223C16.5721 245.228 18.2657 245.206 19.993 245.274C22.0779 245.174 23.8835 245.644 25.7983 245.089C26.4003 244.441 26.2035 244.629 26.1898 243.431C43.1635 238.088 60.1885 232.91 77.2623 227.895Z" fill="#F89D69"/>
<path d="M0 245.191L14.8446 245.224C13.1744 246.326 2.40257 249.52 0 250.178V245.191Z" fill="#F89D69"/>
<path d="M14.8446 245.224C16.5721 245.229 18.2657 245.207 19.993 245.274C18.4539 246.401 2.97703 250.578 0 251.628V250.178C2.40257 249.52 13.1744 246.326 14.8446 245.224Z" fill="#FCC042"/>
<path d="M77.2622 227.895C77.6837 227.798 78.1047 227.698 78.525 227.595C80.016 228.503 83.0387 227.708 84.418 228.222C83.288 228.357 78.259 228.478 77.2622 227.895Z" fill="#F93E9C"/>
<path d="M25.9766 129.233L68.4843 152.676C77.8488 157.844 87.6238 163.005 96.7853 168.431C95.7461 170.026 95.0416 171.304 94.1408 172.989C73.3988 164.652 52.5806 156.505 31.6886 148.551L18.5044 143.404C17.034 142.826 11.8993 140.718 10.5765 140.539C8.35762 138.287 3.48052 132.165 1.10352 129.385C7.88812 129.492 19.3863 129.719 25.9766 129.233Z" fill="#F94294"/>
<path d="M80.4413 73.0432C83.8138 78.9625 86.993 85.0755 90.2698 91.0607L107.82 122.864C111.644 129.8 116.281 138.749 120.437 145.282L116.345 147.872C111.824 141.64 105.459 134.155 100.525 127.971L68.6168 87.5912C65.0538 82.9935 60.862 77.8622 57.478 73.2495L72.5448 73.2765C74.1363 73.279 79.1265 73.396 80.4413 73.0432Z" fill="#F94294"/>
<path d="M218.312 73.1718C225.85 73.2133 233.603 73.3143 241.138 73.1696C238.926 76.2781 235.923 79.8291 233.477 82.8296L219.702 99.5426C206.611 115.413 193.62 131.366 180.731 147.401C179.553 146.44 178.357 145.384 177.198 144.388L206.599 93.3756C210.116 87.3221 214.627 78.8201 218.312 73.1718Z" fill="#F94294"/>
<path d="M91.81 231.732C92.4838 233.508 92.97 234.429 93.887 236.112C88.1755 240.368 81.8798 244.604 76.0008 248.672L43.5555 271.09L23.0701 285.345C20.9062 286.85 15.1467 291.057 13.0463 292.17C12.0009 293.147 10.0767 294.285 8.84892 295.21L6.84849 296.7C6.01912 297.332 5.46019 297.602 4.50977 297.935C5.94984 296.16 11.0471 290.447 12.6759 289.005C14.0707 286.672 21.3653 279.467 23.6387 276.795L23.4194 275.91L24.3604 275.682C25.202 274.43 25.7468 267.712 25.9853 265.725L18.9233 265.747C21.5784 264.875 26.3163 262.445 29.0168 261.155C34.0338 258.75 39.072 256.39 44.131 254.077C59.6103 246.869 76.6198 239.438 91.81 231.732Z" fill="#F89D69"/>
<path d="M4.50977 297.935C5.94984 296.16 11.0471 290.448 12.6759 289.005C11.9917 291.275 8.37354 293.518 8.27562 294.815C8.30162 294.848 8.29879 294.85 8.35184 294.862C8.67537 294.94 9.26011 294.358 9.44256 294.198C9.59099 294.068 9.74049 293.99 9.90102 293.883C10.154 293.713 10.3957 293.548 10.6504 293.383C10.8444 293.258 10.9775 293.1 11.1499 292.948C11.3062 292.81 11.474 292.727 11.6427 292.612C11.7462 292.54 11.8452 292.465 11.9483 292.392C12.1363 292.262 12.5858 291.955 12.7978 291.965C12.8865 291.97 13.0384 292.163 13.0463 292.17C12.0009 293.148 10.0767 294.285 8.84892 295.21L6.84849 296.7C6.01912 297.333 5.46019 297.602 4.50977 297.935Z" fill="#F79586"/>
<path d="M0 196.326C5.2188 196.277 10.4379 196.274 15.6568 196.316C17.3301 196.329 21.612 196.272 23.0387 196.516L23.1629 197.524L24.7093 197.502C28.9127 197.565 33.243 197.773 37.4495 198.009C53.795 198.929 70.1548 199.338 86.5 200.265C86.308 201.91 86.1595 203.273 86.0898 204.926L31.6028 210.751L14.6659 212.44C12.1611 212.686 7.13585 213.069 4.78715 213.585L0 208.632V207.76V197.427L0 196.326Z" fill="#F94294"/>
<path d="M0 196.326C5.2188 196.277 10.4379 196.274 15.6568 196.316C17.3301 196.329 21.612 196.272 23.0387 196.516L23.1629 197.524L24.7093 197.502C25.1345 200.948 25.6495 204.383 26.2542 207.802L0 207.76V197.427L0 196.326Z" fill="#2C0E6B"/>
<path d="M0 196.326C5.2188 196.277 10.4379 196.274 15.6568 196.316C17.3301 196.329 21.612 196.272 23.0387 196.516L23.1629 197.524C15.4861 197.619 7.70173 197.397 0 197.427L0 196.326Z" fill="#F93E9C"/>
<path d="M102.46 73.23C107.578 87.8462 113.147 102.604 118.394 117.214C121.105 124.764 124.425 134.765 127.45 141.903C126.034 142.509 124.658 143.091 123.268 143.761C113.22 126.764 103.271 109.71 93.4204 92.5985L86.2852 80.2045C85.5607 78.9717 82.6787 74.2712 82.2534 73.2305L102.46 73.23Z" fill="#F94294"/>
<path d="M0 208.632L4.78715 213.585L5.9907 214.807C10.0606 218.889 15.0821 225.013 19.0085 228.629C19.6672 229.276 20.3149 229.935 20.9511 230.605C23.8063 229.517 27.1795 228.779 30.176 228.096L30.5815 228.217C30.869 228.306 31.127 228.376 31.4285 228.377C33.1592 228.252 34.8812 228.235 36.6157 228.241C46.0602 228.278 55.577 228.094 65.0143 228.505C61.5463 229.63 26.4578 241.513 26.1488 241.926L26.1898 243.431C26.2035 244.629 26.4003 244.441 25.7983 245.089C23.8835 245.644 22.0779 245.174 19.993 245.274C18.2657 245.206 16.5721 245.228 14.8446 245.223L0 245.19V234.668V233.498V208.632Z" fill="#F89D69"/>
<path d="M0 208.632L4.78715 213.585L5.9907 214.807C10.0606 218.889 15.0821 225.013 19.0085 228.629C19.6672 229.276 20.3149 229.935 20.9511 230.605C21.9328 231.637 22.9291 232.635 23.9093 233.675C15.9402 233.549 7.97015 233.49 0 233.498L0 208.632Z" fill="#2C0E6B"/>
<path d="M0 234.668L25.899 234.712C25.9535 237.061 25.963 239.599 26.1488 241.926L26.1898 243.431C26.2035 244.629 26.4003 244.441 25.7983 245.089C23.8835 245.644 22.0779 245.174 19.993 245.274C18.2657 245.206 16.5721 245.228 14.8446 245.223L0 245.19V234.668Z" fill="#2C0E6B"/>
<path d="M197.175 73.1725C203.542 73.2142 209.909 73.2157 216.276 73.177C214.621 76.1825 212.227 79.857 210.411 82.8435L201.078 98.3095L174.303 142.568C172.931 141.764 171.925 141.267 170.498 140.589L197.175 73.1725Z" fill="#F94294"/>
<path d="M121.924 73.0375L130.427 114.422C131.851 121.532 133.626 132.4 135.425 139.032C133.631 139.549 132.208 140.007 130.453 140.644C126.332 129.711 121.725 118.43 117.457 107.516C113.155 96.5152 108.74 83.9825 104.072 73.255C106.529 73.2677 120.297 73.4867 121.924 73.0375Z" fill="#F94294"/>
<path d="M5.99072 214.807C32.6183 212.47 59.5803 210.792 86.1493 208.172C86.2138 209.796 86.2398 211.552 86.455 213.146C71.1358 216.529 55.844 220.033 40.5808 223.66C35.2135 224.909 24.0144 227.944 19.0085 228.629C15.0821 225.013 10.0606 218.889 5.99072 214.807Z" fill="#F94294"/>
<path d="M177.845 73.2102L195.257 73.2202L172.427 127.385C170.763 131.435 168.925 135.393 167.348 139.474C165.708 138.925 164.13 138.532 162.457 138.101C167.044 116.566 172.885 94.744 177.845 73.2102Z" fill="#F94294"/>
<path d="M140.254 73.203L143.071 137.367C141.534 137.625 139.999 137.898 138.468 138.187C135.145 122.909 131.73 107.651 128.224 92.414C126.927 86.6945 124.877 78.8292 123.834 73.1932C129.307 73.2345 134.781 73.238 140.254 73.203Z" fill="#F94294"/>
<path d="M9.99414 179.084L65.0645 188.714C71.9658 189.911 80.763 191.14 87.4 192.488L86.6525 196.685C75.086 196.333 63.297 196.498 51.6935 196.179C43.0698 195.942 34.3773 195.629 25.7465 195.408C25.133 195.392 24.9925 195.453 24.4841 195.748C23.6467 195.006 22.5217 193.539 21.7711 192.657C17.8977 188.106 13.8196 183.668 9.99414 179.084Z" fill="#F94294"/>
<path d="M159.66 72.8297C160.519 73.6577 174.117 73.244 176.008 73.2395L159.196 137.454C157.849 137.25 156.21 137.108 154.834 136.952C156.531 119.072 157.239 100.939 158.891 83.0412C159.201 79.6797 159.222 76.1595 159.66 72.8297Z" fill="#F94294"/>
<path d="M142.209 73.2085L157.573 73.2182C155.204 94.1792 153.632 115.821 151.48 136.879C149.997 136.845 148.025 136.976 146.503 137.035C144.934 115.769 143.502 94.4932 142.209 73.2085Z" fill="#F94294"/>
<path d="M31.655 227.814C49.7857 224.468 68.736 220.314 86.8817 216.65C87.1367 217.968 87.416 219.621 87.729 220.904L65.0145 228.505C55.5772 228.094 46.0605 228.278 36.616 228.241C34.8815 228.235 33.1595 228.252 31.4287 228.377L31.655 227.814Z" fill="#F94294"/>
<path d="M78.5249 227.595C81.8327 226.358 85.3322 225.405 88.5744 224.163L88.9022 225.053C89.3379 226.244 89.6176 227.249 90.2141 228.392C88.2606 228.217 86.3764 228.278 84.4179 228.222C83.0387 227.708 80.0159 228.503 78.5249 227.595Z" fill="#F94294"/>
<path d="M30.1758 228.096C30.6678 227.996 31.1605 227.902 31.6545 227.813L31.4283 228.377C31.1268 228.376 30.8688 228.306 30.5813 228.217L30.1758 228.096Z" fill="#F86F7D"/>
<path d="M330.148 402.897C354.658 421.955 377.748 442.342 401.888 461.78C415.783 472.967 430.675 483.432 444.463 494.832C448.31 498.015 452.6 501.247 456.32 504.54L456.315 510.39C453.508 508.39 429.773 491.717 428.868 491.6C428.56 492.472 428.623 492.917 428.625 493.832C428.953 498.597 428.65 506.85 428.67 512H428.118H427.87H391.27H390.323H353.035H352.245H315.12H314.355H277.22H276.803H276.49H267.173H244.261H234.76H233.83H197.185H196.428H159.491H158.657H122.195H121.338H84.3728H83.4948C83.4845 505.477 83.7018 497.29 83.4613 490.952C81.5375 491.592 58.14 508.532 55.2065 510.725L55.2235 498.99C61.5475 491.797 68.1863 483.232 74.2728 475.747L101.238 442.587C114.865 441.527 129.427 439.705 143.094 438.295L218.209 430.632C238.818 428.445 260.715 425.837 281.293 424.18C296.333 432.595 311.325 441.097 326.265 449.687C343.71 459.372 361.09 469.17 378.408 479.077L378.948 478.705L329.66 444.487C319.033 437.132 307.018 429.24 296.668 421.637C307.145 415.92 320.005 409 330.148 402.897Z" fill="#FCC042"/>
<path d="M84.3532 490.702C86.2734 489.34 91.5704 485.997 93.6419 484.917C93.5872 493.305 93.5844 501.692 93.6337 510.08L111.318 497.695C113.648 496.047 118.742 492.235 121.047 490.975C121.507 491.605 121.417 492.32 121.449 493.137C121.273 494.107 121.332 497.877 121.331 499.007L121.338 512H84.3729H83.4949C83.4847 505.477 83.7019 497.29 83.4614 490.952C83.8574 490.89 83.9267 490.847 84.3532 490.702Z" fill="#2C0E6B"/>
<path d="M83.4614 490.953C83.8574 490.89 83.9267 490.848 84.3532 490.703C84.6627 496.588 84.4344 505.895 84.3729 512H83.4949C83.4847 505.477 83.7019 497.29 83.4614 490.953Z" fill="#FBB942"/>
<path d="M381.002 485.142C384.127 486.992 387.255 489.067 390.315 491.045L390.337 497.897L390.322 512H353.035H352.245L352.257 498.36C352.255 496.887 352.147 492.655 352.365 491.425L353.087 491.132C355.195 492.435 357.345 493.942 359.365 495.395C366.505 500.52 373.955 505.357 381.032 510.555L381.002 485.142Z" fill="#2C0E6B"/>
<path d="M352.365 491.425L353.087 491.133C352.95 497.93 353.022 505.173 353.035 512H352.245L352.257 498.36C352.255 496.888 352.147 492.655 352.365 491.425Z" fill="#FBB942"/>
<path d="M121.871 490.858L131.488 484.935L131.539 510.593C140.407 504.068 149.715 497.588 158.707 491.208L158.657 512H122.195H121.338L121.331 499.008C121.332 497.878 121.273 494.108 121.449 493.138C121.59 492.313 121.528 491.593 121.871 490.858Z" fill="#2C0E6B"/>
<path d="M121.449 493.138C121.59 492.313 121.528 491.593 121.871 490.858C122.174 492.428 122.115 496.175 122.133 497.93L122.195 512H121.338L121.331 499.008C121.332 497.878 121.273 494.108 121.449 493.138Z" fill="#FBB942"/>
<path d="M159.492 491.01C162.649 489.03 165.791 487.025 168.918 485L168.962 510.555C172.59 508.23 177.221 504.783 180.742 502.263L196.247 491.272C196.607 496.98 196.458 506.097 196.428 512H159.491L159.492 491.01Z" fill="#2C0E6B"/>
<path d="M342.755 485.315C344.725 486.502 350.928 490.107 352.365 491.425C352.148 492.655 352.255 496.887 352.258 498.36L352.245 512H315.12L315.038 491.44C318.198 493.415 322.083 496.287 325.203 498.445C331.08 502.465 336.928 506.525 342.748 510.627L342.755 485.315Z" fill="#2C0E6B"/>
<path d="M418.497 484.96L427.81 491.267L427.87 512H391.27C391.267 506.162 391.42 499.927 391.235 494.135C391.25 493.355 391.147 492.342 391.587 491.78C393.392 492.697 395.142 494.077 396.825 495.217C404.082 500.137 411.187 505.49 418.532 510.267L418.497 484.96Z" fill="#2C0E6B"/>
<path d="M197.207 490.74C198.665 490.352 204.806 485.937 206.51 484.855L206.487 511.722C215.487 505.54 224.838 498.595 233.793 492.197L233.83 512H197.185L197.207 490.74Z" fill="#2C0E6B"/>
<path d="M304.95 484.992C308.64 487.11 311.313 488.805 314.418 491.677C314.323 498.45 314.303 505.225 314.355 512H277.22L277.178 511.402C277.288 505.492 277.298 498.315 277.185 492.4C286.41 498.895 295.68 505.322 304.995 511.687L304.95 484.992Z" fill="#2C0E6B"/>
<path d="M267.155 486.248C268.917 487.385 275.385 491.338 276.545 492.373C276.76 492.38 276.972 492.39 277.185 492.4C277.297 498.315 277.287 505.493 277.177 511.403L277.22 512H276.802H276.49H267.172C267.157 503.5 267.347 494.718 267.155 486.248Z" fill="#2C0E6B"/>
<path d="M276.545 492.373C276.76 492.38 276.973 492.39 277.185 492.4C277.298 498.315 277.288 505.493 277.178 511.403L277.22 512H276.803H276.49C276.508 506.418 276.195 497.708 276.545 492.373Z" fill="#ECAE51"/>
<path d="M276.803 512C276.8 511.41 276.795 510.82 276.783 510.23L276.88 510.095L276.805 509.87L276.833 509.863L276.838 509.833L276.858 509.868L276.815 509.925C276.925 510.123 277.085 511.063 277.178 511.403L277.22 512H276.803Z" fill="#FBB942"/>
<path d="M234.744 491.975C237.934 490.01 241.091 487.995 244.215 485.93L244.261 512H234.76L234.744 491.975Z" fill="#2C0E6B"/>
<path d="M428.118 512C428.145 506.625 428.028 496.778 428.15 491.008C428.153 490.938 428.195 490.938 428.275 490.915C428.453 491.163 428.433 492.95 428.625 493.833C428.953 498.598 428.65 506.85 428.67 512H428.118Z" fill="#FBB942"/>
<path d="M378.948 478.705C380 479.452 380.868 480.125 381.885 480.912C380.585 480.305 379.64 479.805 378.408 479.077L378.948 478.705Z" fill="#6E3D60"/>
<path d="M60.2007 306.025L81.8945 276.945C83.4078 274.9 91.4115 263.83 92.7477 262.647L92.7513 266.312C92.7923 273.022 93.013 278.78 94.6973 285.38L95.3795 287.507C94.8903 289.18 86.1433 304.01 84.8375 305.89C86.1728 305.792 104.421 305.642 104.72 305.74L104.856 305.32C105.111 304.515 105.068 304.565 105.588 303.967L106.716 305.95C110.975 312.63 113.872 316.06 119.583 321.475L120.466 322.342C126.574 327.427 134.511 333.442 141.582 337.007L142.569 337.585C151.936 342.592 157.335 344.54 166.814 348.545C174.604 351.352 182.484 353.902 190.44 356.197C194.015 357.217 199.446 358.757 203.126 359.205C200.108 356.54 197.047 353.925 193.944 351.362C194.792 350.892 195.248 350.872 196.002 350.5L196.681 350.155C205.574 357.362 215.816 365.117 224.41 372.432C212.264 376.39 198.789 381.817 186.728 386.262L162.949 394.995C159.587 396.24 155.501 397.607 152.262 398.942C141.013 396.05 140.987 397.357 129.987 401.075L127.545 405.377L76.898 405.492L38.994 450.705C34.0152 456.66 28.4517 462.93 23.6878 468.972C24.4733 465.62 25.241 462.075 26.085 458.752L0.75639 458.895C6.08853 452.865 11.2153 446.597 16.4901 440.505C17.6957 439.112 23.5733 432.355 24.2105 431.172C22.8535 430.985 18.0396 431.09 16.4401 431.092L0 431.147V430.21V392.247V391.195V380.777V379.67V352.747V351.702V341.415V340.305L0.186689 340.227C2.90625 337.342 23.6473 315.31 24.204 313.795C24.5318 313.35 24.6026 313.252 24.3504 312.757C24.2906 312.117 24.358 312.09 24.4746 311.432L24.6991 311.58L24.8344 311.975C25.865 311.755 31.0308 306.787 32.1333 305.78C35.282 305.772 59.3045 305.58 60.2007 306.025Z" fill="#FCC042"/>
<path d="M32.1331 305.78C35.2818 305.772 59.3043 305.58 60.2006 306.025C54.0926 314.662 47.1258 323.235 40.8763 331.812C39.4093 333.825 34.6531 339.485 33.9983 341.052C32.5863 341.475 28.5071 340.885 26.4386 341.1C18.8778 340.305 8.19171 340.46 0.186523 340.227C2.90608 337.342 23.6472 315.31 24.2039 313.795C24.5316 313.35 24.6024 313.252 24.3502 312.757C24.2904 312.117 24.3578 312.09 24.4745 311.432L24.6989 311.58L24.8342 311.975C25.8648 311.755 31.0306 306.787 32.1331 305.78Z" fill="#F79586"/>
<path d="M62.0397 305.805C64.6757 305.803 81.7759 305.575 82.9632 306.055C78.3257 314.703 73.3774 323.203 68.7492 331.85C67.0467 335.03 64.6584 338.85 63.2097 342.02C57.2464 342.183 50.0857 341.548 44.0322 341.488C42.0032 341.468 35.6602 341.38 34.2017 341.1C36.9394 338.183 40.1414 333.638 42.7062 330.458C49.1404 322.483 55.4377 313.598 62.0397 305.805Z" fill="#F79586"/>
<path d="M84.8373 305.89C86.1726 305.793 104.421 305.643 104.72 305.74C100.322 318.045 96.0011 330.508 91.4536 342.753C82.7736 342.89 72.6366 342.195 63.7881 342.043C64.1738 340.293 83.0141 309.01 84.8373 305.89Z" fill="#F79586"/>
<path d="M106.716 305.95C110.975 312.63 113.872 316.06 119.583 321.475C118.748 323.48 116.859 340.432 116.504 343.975C109.349 343.217 99.3285 343.09 92.0005 342.82C92.3057 341.637 93.8432 337.94 94.3327 336.71L99.178 324.582L103.786 312.915C104.502 311.075 105.747 307.527 106.716 305.95Z" fill="#F79586"/>
<path d="M0 392.248L23.1958 392.26L9.4115 409.525C6.73968 412.893 3.61362 417.038 0.786925 420.165C9.15832 420.118 17.8174 420.275 26.1408 420.098C25.7328 422.58 24.8644 427.98 24.2013 430.258C16.2161 430.12 8.00218 430.213 0 430.21V392.248Z" fill="#2C0E6B"/>
<path d="M62.0396 305.805C71.6663 294.237 80.4745 281.5 90.07 269.853C91.016 268.703 91.7473 267.475 92.7513 266.312C92.7923 273.023 93.013 278.78 94.6973 285.38C90.5658 291.383 86.9778 300.017 82.963 306.055C81.7758 305.575 64.6756 305.802 62.0396 305.805Z" fill="#F89D69"/>
<path d="M0 351.703L24.5874 351.78L24.6231 352.717C19.1094 358.985 13.5354 365.2 7.90172 371.36C5.94805 373.485 2.01456 377.978 0 379.67V352.747V351.703Z" fill="#2C0E6B"/>
<path d="M0 351.703L24.5874 351.78L24.6231 352.717L0 352.747V351.703Z" fill="#FBB942"/>
<path d="M120.466 322.343C126.574 327.428 134.511 333.443 141.582 337.008C141.59 339.388 142.102 343.5 142.342 345.955C136.129 345.078 129.049 345.045 122.75 344.313C121.033 344.113 118.686 344.195 116.972 343.893C117.701 340.923 118.232 336.493 118.712 333.375L119.44 328.623C119.731 326.65 120.077 324.285 120.466 322.343Z" fill="#F79586"/>
<path d="M0 341.415C8.57185 341.435 17.8918 341.152 26.3253 341.345C25.6938 344.815 25.1143 348.292 24.5874 351.78L0 351.702V341.415Z" fill="#2C0E6B"/>
<path d="M0 380.777L26.0905 380.76C25.1972 384.075 24.0975 387.885 23.3812 391.212L0 391.195V380.777Z" fill="#2C0E6B"/>
<path d="M142.569 337.585C151.936 342.592 157.335 344.54 166.814 348.545C165.373 348.627 164.174 348.56 162.749 348.317C156.169 347.207 149.63 346.667 143.006 345.977C142.743 343.305 142.467 340.255 142.569 337.585Z" fill="#F79586"/>
<path d="M395.95 228.235L456.415 228.282C468.907 228.264 482.075 228.073 494.547 228.347C492.942 230.122 491.36 231.917 489.8 233.732C497.11 233.891 504.667 233.752 512 233.794V234.851V245.177V265.587V275.555V276.742V301.927V302.567V312.732C504.345 312.71 495.795 312.877 488.227 312.645C488.247 311.872 487.147 307.005 486.922 305.94C483.802 305.562 475.805 305.762 472.385 305.757C463.347 305.665 454.31 305.7 445.275 305.865C449.827 300.502 454.792 295.09 459.497 289.837C459.302 289.542 459.102 289.25 458.897 288.96C452.56 294.662 446.25 300.952 439.927 306.522C438.94 305.91 438.037 305.932 436.885 305.927C396.807 305.767 356.682 305.565 316.617 306.027C316.392 306.03 316.125 306.265 315.975 306.365L316.587 307.137C311.332 304.455 305.657 300.665 300.397 297.86C299.145 297.192 295.717 295.03 294.667 294.677C295.455 294.79 299.137 293.637 300.182 293.337L297.167 292.11C299.685 290.842 303.1 289.702 305.802 288.575C306.28 288.71 307.087 289.025 307.567 288.777C309.32 287.867 310.98 286.78 312.657 285.742C315.44 284.032 318.232 282.345 321.04 280.68L321.835 280.17C323.862 279.085 327.767 277.095 329.265 275.62C330.947 273.692 335.855 271.155 338.17 269.965C339.117 270.125 339.412 270.162 340.367 270.192C341.427 269.372 341.51 268.025 341.717 267.895C346.65 264.817 351.682 261.73 356.59 258.617C358.067 257.68 362.257 255.212 363.225 254.1C362.592 253.615 362.125 253.762 361.16 253.692C363.387 251.85 367.412 249.454 369.92 247.929C370.925 247.927 377.047 242.796 378.317 241.818L395.95 228.235Z" fill="#F89D69"/>
<path d="M489.013 276.785C490.74 276.595 494.92 276.708 496.775 276.71L512 276.743V301.928C504.235 294.048 496.58 284.963 489.013 276.785Z" fill="#2C0E6B"/>
<path d="M489.8 233.733C497.11 233.891 504.668 233.752 512 233.794V234.852V245.178C503.52 245.25 495.04 245.261 486.558 245.21C486.708 243.656 487.32 235.76 487.943 234.801C488.78 234.119 488.81 234.056 489.8 233.733Z" fill="#2C0E6B"/>
<path d="M489.8 233.733C497.11 233.891 504.667 233.752 512 233.794V234.852C504.81 234.839 494.837 235.186 487.942 234.801C488.78 234.119 488.81 234.056 489.8 233.733Z" fill="#F89D69"/>
<path d="M512 265.588V275.555V276.743L496.775 276.71C494.92 276.708 490.74 276.595 489.012 276.785C489.005 276.765 488.997 276.745 488.992 276.728C488.715 276.438 489.172 276.068 489.1 275.833C489.045 275.66 487.832 275.505 487.825 275.503L486.277 265.628L512 265.588Z" fill="#2C0E6B"/>
<path d="M487.825 275.503C495.76 275.383 504.04 275.533 512 275.555V276.743L496.775 276.71C494.92 276.708 490.74 276.595 489.013 276.785C489.005 276.765 488.998 276.745 488.993 276.728C488.715 276.438 489.173 276.068 489.1 275.833C489.045 275.66 487.833 275.505 487.825 275.503Z" fill="#F79586"/>
<path d="M486.28 302.528C494.855 302.455 503.427 302.468 512 302.568V312.733C504.345 312.71 495.795 312.877 488.227 312.645C488.247 311.872 487.147 307.005 486.922 305.94L486.28 302.528Z" fill="#2C0E6B"/>
<path d="M321.04 280.68L321.835 280.17C324 281.345 337.608 285.863 337.97 286.35C337.983 286.465 337.99 286.41 337.943 286.515C337.788 286.6 322.28 281.37 321.04 280.68Z" fill="#FCC042"/>
<path d="M463.34 284.787L463.585 285.305C462.2 286.78 460.865 288.367 459.497 289.837C459.302 289.542 459.102 289.25 458.897 288.96C459.6 288.12 462.327 285.765 463.34 284.787Z" fill="#2C0E6B"/>
<path d="M463.34 284.788C463.742 284.333 466.277 281.798 466.757 281.498L466.732 281.495L466.817 281.478C466.83 281.508 466.84 281.538 466.852 281.568L466.677 281.67L466.725 281.808C466.362 282.328 464.052 284.84 463.585 285.305L463.34 284.788Z" fill="#6E3D60"/>
<path d="M492.955 90.9158C498.665 90.96 504.375 90.948 510.083 90.8795C509.053 92.229 507.928 93.5858 506.84 94.8993C500.43 102.655 494.283 110.687 487.783 118.363C495.458 118.154 504.18 118.411 512 118.37V119.346V157.589V158.504V196.375V197.457V207.682V208.965V233.794C504.668 233.752 497.11 233.891 489.8 233.733C491.36 231.917 492.943 230.122 494.548 228.348C482.075 228.073 468.908 228.264 456.415 228.282L395.95 228.235C394.153 228.136 392.355 228.056 390.555 227.993C394.32 224.492 399.023 221.344 402.785 217.872C405.093 215.665 408.54 211.634 410.775 209.166L425.72 192.743L422.438 192.96C425.898 187.911 432.233 182.078 436.05 177.104C437.318 175.862 443.11 169.22 443.57 167.916L443.09 167.175C443.513 166.558 444.685 166.367 445.56 166.084C451.995 158.343 458.505 150.663 465.088 143.047C462.913 143.676 461.39 144.012 459.158 144.437C461.773 140.532 475.868 122.911 476.515 120.54C477.108 117.172 481.265 110.96 483.103 107.853C486.415 102.224 489.7 96.578 492.955 90.9158Z" fill="#F94294"/>
<path d="M487.783 118.363C495.458 118.154 504.18 118.41 512 118.369V119.346V157.589L487.708 157.545C494.92 148.236 503.158 138.381 510.705 129.327L486.14 129.358C486.588 125.989 487.06 122.623 487.553 119.261L487.783 118.363Z" fill="#2C0E6B"/>
<path d="M487.783 118.363C495.458 118.154 504.18 118.41 512 118.369V119.346C503.85 119.271 495.703 119.243 487.553 119.261L487.783 118.363Z" fill="#F93E9C"/>
<path d="M487.702 158.489C487.617 158.012 487.56 157.979 487.707 157.545L512 157.589V158.504V196.375C504.085 196.494 496.167 196.532 488.25 196.49C494.802 187.724 504.427 176.692 511.642 168.347C503.485 168.604 494.567 168.472 486.377 168.506C486.69 165.222 487.377 161.864 487.702 158.489Z" fill="#2C0E6B"/>
<path d="M487.702 158.489C487.617 158.012 487.56 157.979 487.707 157.545L512 157.589V158.504L487.702 158.489Z" fill="#F93E9C"/>
<path d="M494.547 228.347C495.777 227.11 496.902 225.639 498.095 224.345C502.727 219.316 507.21 213.822 512 208.965V233.794C504.667 233.752 497.11 233.891 489.8 233.732C491.36 231.917 492.942 230.122 494.547 228.347Z" fill="#2C0E6B"/>
<path d="M488.135 197.494L512 197.457V207.682C503.557 207.619 495.115 207.624 486.672 207.696C487.077 205.413 487.39 203.051 487.702 200.749L488.135 197.494Z" fill="#2C0E6B"/>
<path d="M308.36 73.2543C308.603 73.1163 309.345 72.6078 309.508 72.597L309.51 72.631C309.433 72.788 309.5 72.6773 309.215 73.0125C310.825 73.3745 317.483 73.226 319.515 73.2243L340.453 73.223C343.55 73.2285 348.348 73.084 351.318 73.356L265.05 119.703C251.24 127.21 237.388 134.642 223.496 141.998C221.61 145.356 220.188 148.649 218.435 151.993C217.756 153.44 217.008 155.156 216.183 156.495C214.238 160.408 212.33 164.439 210.318 168.311L208.141 172.451C207.172 174.481 206.06 176.525 205.088 178.559C204.607 179.538 203.739 181.453 203.224 182.324C202.238 184.223 201.208 186.485 200.175 188.33C199.669 189.373 198.741 191.448 198.201 192.373C197.483 193.699 196.898 195.033 196.128 196.331C195.823 197.339 190.299 208.162 189.561 209.487C171.503 214.268 164.556 222.202 154.911 237.296C156.056 233.678 161.506 222.575 163.301 218.849C156.178 218.433 151.616 216.77 147.244 210.952C147.245 193.371 157.524 177.072 170.413 165.731C174.182 162.415 177.959 160.434 183.008 160.24C175.191 150.381 154.894 171.086 147.507 175.183C147.434 175.214 147.36 175.246 147.286 175.277C148.815 173.423 150.901 171.081 152.595 169.373C161.312 160.581 168.964 145.476 183.661 151.671L182.825 150.527C184.599 147.628 188.355 143.244 190.6 140.394L203.475 123.773L231.448 88.0203C234.783 83.826 239.818 76.8823 243.219 73.1688C251.935 73.308 261.57 73.3405 270.285 73.1888L270.938 72.6175L270.778 74.1723C271.098 73.8323 271.403 73.4963 271.75 73.1825C275.668 73.4105 280.97 73.2573 284.983 73.2515L308.36 73.2543Z" fill="#FCC042"/>
<path d="M308.36 73.2543C308.603 73.1163 309.345 72.6078 309.508 72.597L309.51 72.631C309.433 72.788 309.5 72.6773 309.215 73.0125C310.825 73.3745 317.483 73.226 319.515 73.2243L340.453 73.223C343.55 73.2285 348.348 73.084 351.318 73.356L265.05 119.703C251.24 127.21 237.388 134.642 223.496 141.998C221.61 145.356 220.188 148.649 218.435 151.993C217.314 152.213 209.378 156.891 207.751 157.789C202.426 160.727 197.076 163.618 191.701 166.463C191.096 164.738 190.802 164.061 189.945 162.447C200.46 155.002 211.489 146.376 221.867 138.599L296.253 82.6193L295.73 82.23C299.415 79.2683 304.415 75.937 308.36 73.2543Z" fill="#F94294"/>
<path d="M308.36 73.2543C308.602 73.1163 309.345 72.6078 309.507 72.597L309.51 72.631C309.432 72.788 309.5 72.6773 309.215 73.0125C308.825 73.5368 297.002 82.2803 296.252 82.6193L295.73 82.23C299.415 79.2683 304.415 75.937 308.36 73.2543Z" fill="#F79586"/>
<path d="M270.778 74.1722C271.098 73.8322 271.403 73.4962 271.75 73.1825C275.668 73.4105 280.97 73.2572 284.983 73.2515L308.36 73.2542C304.415 75.937 299.415 79.2682 295.73 82.23C293.555 84.0337 289.573 86.7247 287.185 88.4497L266.618 103.202L188.434 159.2L187.023 156.44C193.525 149.709 201.194 142.484 207.938 135.816L270.778 74.1722Z" fill="#F94294"/>
<path d="M182.825 150.527C184.599 147.628 188.355 143.244 190.6 140.394L203.475 123.773L231.448 88.0202C234.783 83.826 239.818 76.8822 243.219 73.1687C251.935 73.308 261.57 73.3405 270.285 73.1887C265.828 77.737 261.04 82.0347 256.44 86.4477C232.914 109.023 208.43 130.704 184.935 153.287L183.661 151.671L182.825 150.527Z" fill="#F94294"/>
<path d="M216.183 156.495C214.238 160.408 212.33 164.439 210.318 168.311C209.212 168.45 206.299 169.651 205.052 170.092L194.45 173.75C194.054 172.484 193.605 171.235 193.103 170.007C197.629 167.244 202.349 164.562 206.897 161.807C209.404 160.288 213.565 157.691 216.183 156.495Z" fill="#F94294"/>
<path d="M195.241 177.454C199.014 175.857 202.779 174.638 206.538 173.076C207.193 172.804 207.433 172.677 208.141 172.451C207.172 174.481 206.06 176.525 205.088 178.559L202.749 178.952C200.365 179.336 197.95 179.838 195.57 180.28C195.478 179.221 195.381 178.507 195.241 177.454Z" fill="#F94294"/>
<path d="M195.965 183.864C198.293 183.481 200.958 182.947 203.224 182.324C202.238 184.223 201.208 186.484 200.175 188.33C198.737 188.302 197.674 188.349 196.246 188.454C196.181 186.905 196.052 185.41 195.965 183.864Z" fill="#F94294"/>
<path d="M196.128 196.331C196.004 195.019 195.599 192.346 197.252 192.362L198.201 192.373C197.483 193.699 196.898 195.033 196.128 196.331Z" fill="#F93E9C"/>
<path d="M294.667 294.677C295.717 295.03 299.145 297.192 300.397 297.86C305.657 300.665 311.332 304.455 316.587 307.138L315.975 306.365C316.125 306.265 316.392 306.03 316.617 306.027C356.682 305.565 396.807 305.767 436.885 305.927C438.037 305.932 438.94 305.91 439.927 306.522L406.175 337.815C403.085 340.688 400.01 343.577 396.95 346.485C395.712 347.652 392.345 350.962 391.047 351.767C386.967 354.302 382.025 356.837 377.767 359.11C376.737 358.662 371.17 359.302 369.98 359.582C368.985 359.297 364.547 357.262 363.295 356.712L347.845 349.88L316.235 335.98C310.085 333.278 302.435 330.107 296.522 327.15C295.975 326.925 295.417 326.723 294.88 326.473L294.26 325.508L294.767 325.017C292.567 323.407 289.33 320.567 287.157 318.775L272.027 306.27C270.892 305.682 269.037 304.133 268.792 302.855C271.185 303.57 288.825 296.165 293.262 295.302L294.667 294.677Z" fill="#F79586"/>
<path d="M268.792 302.855C271.185 303.57 288.825 296.165 293.262 295.302C297.547 297.927 302.757 300.273 307.137 302.828C308.277 303.49 311.395 305.033 312.297 305.783C308.277 305.79 273.287 305.245 272.027 306.27C270.892 305.682 269.037 304.133 268.792 302.855Z" fill="#F89D69"/>
<path d="M294.668 294.677C295.718 295.03 299.145 297.192 300.398 297.86C305.658 300.665 311.333 304.455 316.588 307.138C322.713 310.42 331.238 314.9 337.055 318.408C333.048 316.998 328.095 314.115 324.29 312.03C320.343 309.852 316.343 307.77 312.298 305.783C311.395 305.033 308.278 303.49 307.138 302.828C302.758 300.273 297.548 297.927 293.263 295.302L294.668 294.677Z" fill="#FBB942"/>
<path d="M294.767 325.017C295.537 325.525 296.852 326.155 296.522 327.15C295.975 326.925 295.417 326.722 294.88 326.472L294.26 325.507L294.767 325.017Z" fill="#FBB942"/>
<path d="M486.923 305.94C487.148 307.005 488.248 311.872 488.228 312.645C495.795 312.877 504.345 312.71 512 312.732V313.912V351.547V352.605V379.922C510.073 378.05 507.805 375.127 506.02 373.025L495.663 360.972L495.2 360.43C493.693 360.625 493.898 360.362 492.53 360.295C491.998 360.227 491.465 360.165 490.933 360.105C473.118 357.755 455.233 354.022 437.413 351.502C432.32 350.782 426.8 349.99 421.783 348.947C418.913 348.772 411.855 347.417 408.833 346.917L445.275 305.865C454.31 305.7 463.348 305.665 472.385 305.757C475.805 305.762 483.803 305.562 486.923 305.94Z" fill="#F79586"/>
<path d="M421.783 348.948C422.573 348.435 426.48 347.963 427.68 347.768C441.463 345.478 455.348 343.848 469.288 342.885C472.153 342.673 484.478 342.075 486.555 341.478L488.578 351.518L512 351.548V352.605V379.923C510.073 378.05 507.805 375.128 506.02 373.025L495.663 360.973L495.2 360.43C493.693 360.625 493.898 360.363 492.53 360.295C491.998 360.228 491.465 360.165 490.933 360.105C473.118 357.755 455.233 354.023 437.413 351.503C432.32 350.783 426.8 349.99 421.783 348.948Z" fill="#FCC042"/>
<path d="M512 352.605V379.923C510.073 378.05 507.805 375.128 506.02 373.025L495.663 360.973L495.2 360.43C493.005 357.78 490.763 355.165 488.475 352.593L512 352.605Z" fill="#2C0E6B"/>
<path d="M487.978 313.67C488.06 313.153 488.063 313.138 488.228 312.645C495.795 312.878 504.345 312.71 512 312.733V313.913V351.548L488.578 351.518L486.555 341.478C489.27 341.208 493.405 341.283 496.195 341.28L511.64 341.293C503.703 332.575 495.725 322.688 487.978 313.67Z" fill="#2C0E6B"/>
<path d="M487.978 313.67C488.06 313.153 488.063 313.138 488.228 312.645C495.795 312.878 504.345 312.71 512 312.733V313.913L497.965 313.81C494.88 313.793 490.99 313.888 487.978 313.67Z" fill="#F89D69"/>
<path d="M408.877 355.735C416.407 356.035 424.01 356.67 431.535 357.138C450.665 358.41 469.802 359.55 488.945 360.562C489.835 360.422 490.155 360.49 490.932 360.105C491.465 360.165 491.997 360.228 492.53 360.295C493.897 360.363 493.692 360.625 495.2 360.43L495.662 360.973L506.02 373.025C507.805 375.127 510.072 378.05 512 379.922V380.625V391.46V391.8V392.415L508.685 392.388C501.965 392.298 495.245 392.305 488.527 392.413L502.427 408.902C505.532 412.615 508.737 416.655 512 420.193C510.035 420.1 508.035 420.1 506.065 420.082C505.557 418.632 505.237 417.472 504.842 415.992C491.212 410.087 476.847 404.483 463.09 398.765L389.26 367.658C395.482 363.66 402.49 359.515 408.877 355.735Z" fill="#FCC042"/>
<path d="M486.26 380.652L512 380.625V391.46L488.605 391.448C487.745 388.093 486.905 384.055 486.26 380.652Z" fill="#2C0E6B"/>
<path d="M508.685 392.388C508.635 392.345 508.475 392.247 508.45 392.145C508.43 392.065 508.463 391.995 508.52 391.94C508.955 391.5 511.4 391.76 512 391.8V392.415L508.685 392.388Z" fill="#FBB942"/>
<path d="M490.932 360.105C491.465 360.165 491.997 360.227 492.53 360.295L492.542 360.767C491.22 360.75 490.262 360.73 488.945 360.562C489.835 360.422 490.155 360.49 490.932 360.105Z" fill="#48275E"/>
<path d="M495.2 360.43L495.662 360.973C494.61 360.91 493.59 360.793 492.542 360.768L492.53 360.295C493.897 360.363 493.692 360.625 495.2 360.43Z" fill="#6E3D60"/>
<path d="M496.305 61.2378C497.21 62.0463 499.658 64.3745 500.673 64.6205C501.105 64.9158 502.075 66.6373 502.618 67.3338C501.715 68.8223 496.77 78.4533 496.643 79.7598C496.548 80.06 496.345 80.4248 496.203 80.714C495.223 81.2665 491.835 88.2038 491.003 89.6828L382.488 126.611L336.1 141.877C328.015 144.505 318.755 147.272 310.85 150.111C309.635 150.518 308.348 150.881 307.118 151.248C308.033 150.585 308.82 150.151 309.795 149.591C312.238 148.014 315.878 146.529 318.575 145.332C322.198 143.713 325.805 142.058 329.395 140.368L379.258 116.894L378.613 114.153C379.465 114.737 380.343 115.269 381.223 115.815C395.155 109.796 410.358 102.642 424.115 96.1535C423.95 95.3338 423.65 94.5355 423.993 93.841C424.755 93.766 425.935 94.6988 426.663 95.163C437.803 89.7378 449.283 84.7145 460.488 79.3178L460.27 76.587L463.98 77.6893C469.973 74.8533 477.313 71.9288 483.07 68.8563C483.363 68.058 483.183 68.0023 482.993 67.0093L483.22 66.7078L485.69 67.7075C488.785 66.3988 491.85 65.0245 494.888 63.5858L496.305 61.2378Z" fill="#9612E7"/>
<path d="M512 7.97327V31.6095L367.32 98.4727L330.14 115.593C325.742 117.633 317.252 122.107 313.275 123.432C319.81 119.232 327.887 114.887 334.685 110.98L371.367 89.848L463.695 36.13L493.92 18.6737C499.452 15.4819 506.775 11.4805 512 7.97327Z" fill="#9612E7"/>
<path d="M476.515 120.54C475.868 122.911 461.773 140.532 459.158 144.437C456.298 145.066 453.033 145.869 450.19 146.403C444.103 147.997 435.775 149.49 429.508 150.808L387.023 159.624C364.8 164.299 342.55 168.847 320.275 173.267C312.6 174.788 304.755 176.51 297.083 177.886C303.4 174.404 307.645 174.168 314.32 172.171C320.19 170.415 326.183 168.495 332.055 166.674L390.153 148.602C403.43 144.5 417.993 140.227 431.058 135.671L430.773 133.126L433.555 134.746C439.08 133.198 446.383 130.374 451.703 129.115C458.56 126.51 467.275 124.733 473.92 121.52C475.338 120.835 474.785 120.833 476.515 120.54Z" fill="#9612E7"/>
<path d="M476.515 120.54C475.868 122.911 461.773 140.532 459.158 144.437C456.298 145.066 453.033 145.869 450.19 146.403C449.893 146.375 449.8 146.308 449.513 146.201C450.17 145.559 457.803 144.776 458.58 143.905C461.72 140.392 463.983 136.53 466.905 132.783C467.803 131.633 467.868 126.36 467.098 125.299C465.84 124.345 462.085 126.319 460.918 126.602C458.835 127.108 453.493 129.59 451.703 129.115C458.56 126.51 467.275 124.733 473.92 121.52C475.338 120.835 474.785 120.833 476.515 120.54Z" fill="#C820D9"/>
<path d="M499.57 458.923C483.723 450.568 467.958 442.058 452.283 433.388C421.548 416.6 390.937 399.588 360.457 382.345C356.85 380.33 329.228 365.31 328.25 364.07C330.155 364.503 336.28 367.435 338.325 368.375C345 371.423 351.65 374.523 358.277 377.67L408.96 401.015L410.547 398.625L411.36 402.24C417.945 405.105 424.79 408.495 431.32 411.553L468.395 428.835C474.99 431.853 481.565 434.918 488.12 438.025C491.067 439.398 495.48 441.255 498.165 442.863C499.613 443.728 503.343 448.423 504.693 449.99C507.098 452.783 509.535 455.55 512 458.288V458.875C508.05 458.758 503.49 458.715 499.57 458.923Z" fill="#9612E7"/>
<path d="M357.112 189.731C358.875 189.277 363.022 188.698 364.975 188.387L382.052 185.798C400.07 183.017 418.07 180.119 436.05 177.104C432.232 182.078 425.897 187.911 422.437 192.96C408.94 193.64 395.45 194.442 381.967 195.368L368.71 196.2C367.052 196.3 363.44 196.603 361.875 196.538C359.972 196.242 356.655 196.567 354.405 196.419L354.255 196.044C355.03 195.723 355.377 195.839 356.267 195.849C356.975 195.541 357.107 195.069 357.497 194.361L357.665 194.056L357.875 194.309L358.177 194.142L358.352 193.502C357.372 192.299 356.115 193.068 355.3 191.66C355.452 191.12 355.442 191.038 355.687 190.476C356.137 190.282 356.305 190.198 356.742 189.947L357.112 189.731Z" fill="url(#paint0_linear_1510_5163)"/>
<path d="M390.555 227.993C382.385 227.8 374.028 227.184 365.86 226.735L313.543 223.778L286.79 222.366C284.008 222.216 275.998 221.949 273.665 221.37L273.83 221.188C277.758 220.818 284.138 220.923 288.385 220.805C298.958 220.488 309.533 220.223 320.108 220.012L402.785 217.872C399.023 221.344 394.32 224.492 390.555 227.993Z" fill="url(#paint1_linear_1510_5163)"/>
<path d="M361.16 253.693C354.332 253.128 346.27 251.895 339.447 250.953C327.1 249.28 314.767 247.497 302.455 245.604L276.465 241.584C274.487 241.28 263.127 239.89 262.275 239.02C262.775 238.397 280.175 240.228 282.592 240.432L329.87 244.519C331.97 244.696 341.55 245.859 342.685 245.557C343.012 244.988 343.077 244.756 343.605 244.376L344.605 245.892C351.535 246.303 363.18 246.979 369.92 247.929C367.412 249.454 363.387 251.85 361.16 253.693Z" fill="url(#paint2_linear_1510_5163)"/>
<path d="M253.803 255.027C268.49 257.722 283.478 260.562 298.19 263.032C306.45 264.405 314.703 265.835 322.945 267.322C327.838 268.165 333.385 268.945 338.17 269.965C335.855 271.155 330.948 273.692 329.265 275.62C327.333 274.945 323.263 274.022 321.108 273.48L305.1 269.447L253.478 255.887L253.803 255.027Z" fill="url(#paint3_linear_1510_5163)"/>
<path d="M0 470.257L22.2418 470.21C17.1356 476.365 11.8492 482.562 6.64745 488.647C5.73877 489.477 4.33658 491.147 3.65103 492.157C2.87078 492.967 2.12508 493.81 1.41597 494.682C0.962515 495.192 0.597387 495.615 0.167596 496.145L0 496.345V470.257Z" fill="#2C0E6B"/>
<path d="M285.567 200.363C309.52 197.094 333.272 193.054 357.112 189.731L356.742 189.947C356.305 190.198 356.137 190.281 355.687 190.476C355.442 191.038 355.452 191.12 355.3 191.66C356.115 193.068 357.372 192.299 358.352 193.502L358.177 194.142L357.875 194.308L357.665 194.056L357.497 194.361C357.107 195.069 356.975 195.541 356.267 195.849C355.377 195.839 355.03 195.723 354.255 196.044L354.405 196.419C356.655 196.567 359.972 196.242 361.875 196.538C355.8 197.283 348.205 197.226 341.905 197.692C323.63 199.044 304.832 199.469 286.6 200.86L285.567 200.363Z" fill="#9612E7"/>
<path d="M95.6479 286.72C96.7007 286.36 98.5704 282.303 99.5069 280.953C99.7637 287.955 100.994 293.92 103.809 300.355C104.327 301.538 105.15 302.837 105.588 303.967C105.068 304.565 105.111 304.515 104.856 305.32L104.72 305.74C104.421 305.642 86.1727 305.793 84.8374 305.89C86.1432 304.01 94.8902 289.18 95.3794 287.508L95.6479 286.72Z" fill="#F89D69"/>
<path d="M502.618 67.3338C505.375 63.62 508.843 56.4668 512 51.9155V79.8218C507.013 79.973 501.655 79.823 496.643 79.7598C496.77 78.4533 501.715 68.8223 502.618 67.3338Z" fill="#2C0E6B"/>
<path d="M241.934 268.28L242.213 267.858L267.663 276.21C280.233 280.238 293.355 284.27 305.803 288.575C303.1 289.703 299.685 290.843 297.168 292.11C295.27 291.243 293.348 290.413 291.42 289.615C274.835 282.745 258.48 275.218 241.934 268.28Z" fill="url(#paint4_linear_1510_5163)"/>
<path d="M254.583 293.742C257.015 295.212 266.883 301.27 268.793 302.855C269.038 304.132 270.893 305.682 272.028 306.27L287.158 318.775C289.33 320.567 292.568 323.407 294.768 325.017L294.26 325.507L294.88 326.472C292.67 325.615 279.63 320.027 278.528 318.992C272.62 313.46 263.138 304.012 257.81 298.28C256.755 297.44 255.068 295.632 254.058 294.61L254.583 293.742Z" fill="#F79586"/>
<path d="M254.583 293.742C257.015 295.212 266.883 301.27 268.793 302.855C269.038 304.132 270.893 305.682 272.028 306.27L287.158 318.775C289.33 320.567 292.568 323.407 294.768 325.017L294.26 325.507C292.835 324.1 288.17 320.507 286.37 319.105C280.085 314.207 273.653 309.19 267.078 304.707C265.025 303.31 259.838 299.095 257.81 298.28C256.755 297.44 255.068 295.632 254.058 294.61L254.583 293.742Z" fill="#FCC042"/>
<path d="M512 51.2965V51.9155C508.843 56.4668 505.375 63.62 502.618 67.3338C502.075 66.6373 501.105 64.9158 500.673 64.6205C499.658 64.3745 497.21 62.0463 496.305 61.2378C496.55 60.6653 496.52 60.585 497.023 60.216C499.543 58.5483 503.588 53.6775 505.58 51.2593C507.72 51.2933 509.86 51.3058 512 51.2965Z" fill="#7522DF"/>
<path d="M497.023 60.2159C498.193 61.9062 499.6 62.9847 500.673 64.6204C499.658 64.3744 497.21 62.0462 496.305 61.2377C496.55 60.6652 496.52 60.5849 497.023 60.2159Z" fill="#983FBB"/>
<path d="M151.896 149.761C149.749 155.731 146.484 163.95 143.874 169.711C143.787 170.008 143.645 170.604 143.38 170.784C142.975 170.514 143.351 165.384 143.478 164.687C143.442 162.392 143.939 157.732 144.689 155.603C146.858 154.181 149.814 151.426 151.896 149.761Z" fill="#9612E7"/>
<path d="M176.179 333.728C182.81 338.895 190.399 344.63 196.681 350.155L196.002 350.5C195.248 350.873 194.792 350.893 193.944 351.363C188.42 346.84 180.678 339.27 175.408 334.278L176.179 333.728Z" fill="#F79586"/>
<path d="M512 431.725C505.742 431.575 495.35 432.045 488.832 431.413C488.625 431.393 488.447 430.585 488.675 430.58C496.385 430.418 504.242 430.48 512 430.505V431.725Z" fill="#7522DF"/>
<path d="M512 469.333V470.488C504.307 470.413 496.582 470.595 488.897 470.473C488.682 470.468 488.335 469.548 488.567 469.54C496.282 469.28 504.212 469.41 512 469.333Z" fill="#7522DF"/>
<path d="M0 469.3C2.08795 469.143 5.69257 469.253 7.87502 469.255L22.5031 469.24C23.3456 469.235 23.2079 469.705 22.6448 470.105L22.2418 470.21L0 470.258V469.3Z" fill="#FCC042"/>
<path d="M97.6742 279.09C98.7702 278.043 98.4497 277.735 99.7972 276.723C99.7257 278.135 99.629 279.545 99.507 280.953C98.5705 282.303 96.7007 286.36 95.6479 286.72C95.8587 285.023 96.9112 280.528 97.6742 279.09Z" fill="#FCC042"/>
<path d="M496.643 79.7598C501.655 79.823 507.013 79.973 512 79.8218V80.778C507.14 80.8063 500.955 81.0098 496.203 80.714C496.345 80.4248 496.548 80.06 496.643 79.7598Z" fill="#7522DF"/>
<path d="M22.2418 470.21L22.6448 470.105C21.9573 471.355 19.4089 474.302 18.3117 475.485C18.1722 475.615 18.2103 475.577 18.1046 475.755C17.2289 476.745 16.3762 477.752 15.5472 478.78C12.9175 481.982 9.78019 485.237 7.32079 488.522C6.92506 488.712 7.01631 488.865 6.64746 488.647C11.8492 482.562 17.1356 476.365 22.2418 470.21Z" fill="#7C5259"/>
<path d="M465.72 0H466.57C466.558 1.75341 467.025 10.8495 466.04 11.3088L465.8 11.173C465.565 10.401 465.728 1.45854 465.72 0Z" fill="#7522DF"/>
<path d="M369.98 359.582C371.17 359.302 376.737 358.662 377.767 359.11C376.462 359.865 375.135 360.58 373.787 361.255C372.54 360.715 371.21 360.145 369.98 359.582Z" fill="#FCC042"/>
<path d="M97.6743 279.09C98.4451 276.448 99.2013 274.418 100.345 271.9C100.103 273.643 99.9823 274.988 99.7973 276.723C98.4498 277.735 98.7703 278.043 97.6743 279.09Z" fill="#FBB942"/>
<path d="M170.682 329.728C171.589 330.313 172.105 330.643 172.975 331.3L175.919 333.54C176.006 333.603 176.093 333.665 176.179 333.728L175.408 334.278C173.762 332.693 172.293 331.383 170.682 329.728Z" fill="#E89684"/>
<path d="M253.478 255.888C252.21 255.458 250.905 255.15 249.616 254.788C249.459 254.743 248.595 254.663 248.695 254.315C249.214 253.995 252.97 254.87 253.803 255.028L253.478 255.888Z" fill="#C820D9"/>
<path d="M7.32063 488.522C7.26498 488.805 4.2444 492.112 3.8955 492.497L3.65088 492.157C4.33643 491.147 5.73863 489.477 6.6473 488.647C7.01615 488.865 6.9249 488.712 7.32063 488.522Z" fill="#48275E"/>
<path d="M465.808 512C465.823 511.12 465.828 510.242 465.823 509.362C465.823 508.837 466.15 508.3 466.438 508.852C466.685 509.325 466.555 511.34 466.548 512H465.808Z" fill="#FCC042"/>
<path d="M251.192 291.515C252.01 292.038 253.947 293.16 254.582 293.742L254.057 294.61C253.07 293.59 252.15 292.558 251.192 291.515Z" fill="#FBB942"/>
<path d="M1.41602 494.682C2.12512 493.81 2.87082 492.967 3.65107 492.157L3.89569 492.497C3.01769 493.407 2.37774 494.435 1.48868 495.22L1.41602 494.682Z" fill="#6E3D60"/>
<path d="M44.9785 512C45.3718 509.758 45.924 509.073 45.8988 512H44.9785Z" fill="#FCC042"/>
<path d="M241.934 268.28C241.057 267.9 240.328 267.672 239.486 267.157L238.872 266.772C240.001 267.09 241.167 267.307 242.213 267.857L241.934 268.28Z" fill="#7522DF"/>
<path d="M286.6 200.86C284.815 201.192 282.913 200.707 285.568 200.363L286.6 200.86Z" fill="#7522DF"/>
<path d="M1.41597 494.682L1.48864 495.22C0.958035 495.77 0.5102 496.332 0 496.902V496.345L0.167596 496.145C0.597387 495.615 0.962515 495.192 1.41597 494.682Z" fill="#7C5259"/>
<path d="M254.565 361.045C264.323 364.528 274.113 367.918 283.935 371.22C287.875 372.56 293.663 374.143 297.208 375.94C298.2 376.443 302.585 380.21 303.633 381.088L314.51 390.233L293.748 400.175C290.795 401.6 285.673 403.92 283.015 405.52C260.145 405.175 237.273 405.133 214.402 405.395L211.541 398.44L178.904 397.385C178.167 397.37 177.766 397.305 177.053 397.195L177.129 396.98L178.385 396.51C190.377 393.115 202.321 388.938 214.462 385.76C228.015 382.215 241.592 379.403 255.36 376.863C251.715 371.89 247.753 367.035 244.059 362.03C245.553 361.528 247.4 362.41 249.93 362.28C252.16 364.185 255.365 366.675 257.378 368.6C256.498 366.06 255.56 363.543 254.565 361.045Z" fill="#FCC042"/>
<path d="M322.135 378.177C323.65 378.572 332.585 384.465 334.355 385.595C345.847 392.835 357.387 399.995 368.98 407.075L378.155 412.628C379.502 413.44 380.922 414.427 382.325 415.085C383.735 415.747 382.472 414.54 383.957 414.983C384.702 417.093 386.437 417.61 388.335 418.77C392.442 421.225 396.535 423.705 400.612 426.21C402.52 427.405 404.39 428.85 406.297 429.985C427.512 442.622 448.287 456.25 469.707 468.53C470.432 468.402 470.637 468.095 471.135 467.605C471.635 467.938 471.745 469.233 471.91 470L504.91 489.312C505.285 494.765 509.662 504.67 511.6 510.193C511.742 510.525 511.705 510.665 511.732 511.052L511.437 511.138C509.767 510.178 507.385 508.277 505.775 507.092C503.22 505.235 500.64 503.41 498.037 501.617L461.832 476.15L358.105 403.72L332.575 385.767C330.907 384.592 323.102 379.355 322.135 378.177Z" fill="#7522DF"/>
<path d="M140.521 400.48C149.806 401.545 160.943 401.93 170.027 403.377C169.799 403.97 170.189 404.157 170.687 404.367C169.362 404.63 166.356 404.417 164.661 404.482C157.496 404.75 148.5 403.835 141.576 404.985C140.693 405.13 135.547 408.295 134.54 408.9L137.781 420.157C135.378 416.8 133.38 413.147 130.971 409.687C132.008 407.85 133.011 405.532 133.909 403.59C137.245 402.847 137.904 402.455 140.521 400.48Z" fill="#9612E7"/>
<path d="M208.42 403.118C208.776 403.113 210.004 402.96 210.175 403.308C211.279 405.538 212.305 408.288 213.255 410.568C210.938 413.84 208.18 417.24 205.74 420.475C205.985 419.508 206.342 418.338 206.538 417.388C206.77 416.355 207.045 415.285 207.3 414.253L207.546 413.253L207.789 412.253C208.094 411.035 208.419 409.823 208.763 408.615C205.835 407.62 202.757 406.808 199.793 405.898L203.174 403.185C204.923 403.205 206.672 403.183 208.42 403.118Z" fill="#C820D9"/>
<path d="M234.114 348.985L234.609 347.68C239.297 351.962 245.442 357.84 249.93 362.28C247.4 362.41 245.553 361.527 244.059 362.03C241.985 359.735 236.05 351.745 234.114 348.985Z" fill="#F79586"/>
<path d="M139.989 165.208C140.213 165.44 140.327 165.517 140.15 165.887C136.347 173.805 127.356 178.733 119.634 182.028C119.061 181.684 120.179 181.15 120.567 180.828C123.008 178.835 125.475 176.874 127.968 174.945C132.139 171.776 136.071 168.686 139.989 165.208Z" fill="#7522DF"/>
<path d="M230.894 344.103C231.972 345.268 233.438 346.563 234.609 347.68L234.114 348.985C232.966 347.635 232.03 346.145 230.762 344.725L230.894 344.103Z" fill="#E89684"/>
<path d="M170.027 403.377C172.111 403.547 174.107 403.777 176.188 404.002C174.176 404.277 172.693 404.27 170.687 404.367C170.19 404.157 169.799 403.97 170.027 403.377Z" fill="#C820D9"/>
<path d="M230.762 344.725C229.146 343.275 229.225 342.288 230.895 344.103L230.762 344.725Z" fill="#6E3D60"/>
</g>
<defs>
<linearGradient id="paint0_linear_1510_5163" x1="435.552" y1="184.069" x2="354.02" y2="194.435" gradientUnits="userSpaceOnUse">
<stop stop-color="#D828CF"/>
<stop offset="1" stop-color="#8C0CEC"/>
</linearGradient>
<linearGradient id="paint1_linear_1510_5163" x1="369.2" y1="187.056" x2="306.05" y2="252.445" gradientUnits="userSpaceOnUse">
<stop stop-color="#CE27D4"/>
<stop offset="1" stop-color="#7F0AEF"/>
</linearGradient>
<linearGradient id="paint2_linear_1510_5163" x1="328.945" y1="222.906" x2="301.94" y2="264.52" gradientUnits="userSpaceOnUse">
<stop stop-color="#D022CD"/>
<stop offset="1" stop-color="#9714ED"/>
</linearGradient>
<linearGradient id="paint3_linear_1510_5163" x1="306.413" y1="247.396" x2="283.218" y2="278.012" gradientUnits="userSpaceOnUse">
<stop stop-color="#D128CA"/>
<stop offset="1" stop-color="#AF1AE1"/>
</linearGradient>
<linearGradient id="paint4_linear_1510_5163" x1="287.89" y1="267.228" x2="257.98" y2="289.435" gradientUnits="userSpaceOnUse">
<stop stop-color="#D82DC3"/>
<stop offset="1" stop-color="#B419E8"/>
</linearGradient>
<clipPath id="clip0_1510_5163">
<rect width="512" height="512" fill="white"/>
</clipPath>
</defs>
</svg>
