<svg width="512" height="512" viewBox="0 0 512 512" fill="none" xmlns="http://www.w3.org/2000/svg">
<g clip-path="url(#clip0_1510_5379)">
<path d="M0 0H224.107H232.206H313.61H317.645H355.453H358.29H382.503H384.272H402.325H404.14H418.815H420.457H433.775H435.535H449.135H450.622H466.978H468.948H490.223H492.36H512V8.84103V11.0027V32.6705V34.4705V52.435V53.921V71.134V72.6513V90.1665V91.854V111.758V113.697V138.058V140.553V176.12V179.277V512H129.678H60.4615H0V501.668V436.622V0Z" fill="#3C0B82"/>
<path d="M128.258 374.065C134.903 364.335 142.39 355.208 150.634 346.79C169.023 327.78 184.895 317.043 211.393 311.658C224.807 309.055 244.258 308.773 255.702 317.163C275.073 331.363 283.72 358.535 292.07 380.04C297.188 393.213 301.775 406.693 307.182 419.525L233.828 457.495C222.259 463.503 209.773 469.63 198.422 475.938C202.991 468.023 208.795 459.543 213.708 451.718L255.717 385.543C259.642 379.3 265.048 371.498 268.6 365.345L267.897 365.418C254.792 380.218 239.54 395.64 225.845 410.023L166.456 472.825L144.399 496.178C139.749 501.073 133.946 506.898 129.678 512H60.4615H0V501.668V436.623C4.2657 434.74 11.292 432.498 15.8479 430.888L44.4017 420.865L114.679 396.105L211.174 360.725L233.827 352.44C237.513 351.09 242.158 349.25 245.82 348.115L245.65 347.66C206.75 356.518 166.985 364.803 128.258 374.065Z" fill="#C829EE"/>
<path d="M264.635 355.3L264.878 355.847C219.244 391.24 173.406 426.37 127.367 461.235L82.7018 495.055C75.4155 500.575 67.5385 506.285 60.4615 512H0V501.667L157.172 414.41C178.752 402.272 200.408 390.27 222.137 378.402C235.905 370.815 250.698 362.44 264.635 355.3Z" fill="#3C0B82"/>
<path d="M264.635 355.3C265.528 354.705 266.465 354.325 267.43 353.868C266.65 354.498 265.7 355.298 264.878 355.848L264.635 355.3Z" fill="#581292"/>
<path d="M267.897 365.417C268.13 365.127 268.787 364.205 269.142 364.165C269.495 364.325 268.68 365.24 268.6 365.345L267.897 365.417Z" fill="#581292"/>
<path d="M245.65 347.66C245.848 347.582 246.702 347.207 246.869 347.465C246.876 347.682 246.01 348.015 245.82 348.115L245.65 347.66Z" fill="#581292"/>
<path d="M414.92 44.1488C431.508 39.3193 449.533 47.2888 454.413 64.4033C456.593 71.8338 455.7 79.8283 451.935 86.5951C446.945 95.4908 440.86 97.0041 433.063 102.304C424.953 107.814 417.045 116.031 412.458 124.651C404.98 120.858 397.385 117.225 389.95 113.409C393.418 105.896 395.665 100.76 396.515 92.3543C397.29 84.7003 395.768 78.9573 395.513 71.6243C395.108 59.8563 401.88 49.7546 412.683 44.9373C413.408 44.6468 414.168 44.3493 414.92 44.1488Z" fill="#FEE315"/>
<path d="M224.107 0H232.206C234.999 1.10584 239.056 2.31707 241.965 3.2721L264.355 10.4558C296.345 20.7549 328.268 31.2647 360.12 41.9847L384.42 50.2537C386.665 51.0307 397.08 54.2272 397.968 55.835C396.59 56.059 375.343 48.6818 372.448 47.721C323.133 31.4078 273.685 15.5002 224.107 0Z" fill="#FEE315"/>
<path d="M512 179.277C494.22 156.793 476.615 134.171 459.187 111.413C455.905 107.132 452.612 102.856 449.35 98.5602C448.68 97.6814 447.347 96.3862 447.935 95.2997C449.072 95.8627 506.092 168.432 512 176.12V179.277Z" fill="#FEE315"/>
<path d="M313.61 0H317.645C319.475 1.42333 323.857 3.79078 326.09 5.07075L340.69 13.4435C355.675 22.0026 370.555 30.7397 385.332 39.6527C389.392 42.108 398.647 47.2017 401.702 50.0397L401.71 50.3478L401.225 50.2098L401.412 49.8672L400.967 50.112C397.53 48.6355 391.5 44.8322 388.017 42.7757L367.437 30.7815C356 24.1575 344.53 17.5937 333.025 11.09C326.662 7.48108 319.845 3.77437 313.61 0Z" fill="#FEE315"/>
<path d="M512 140.554C507.85 136.594 501.175 131.375 496.615 127.518L466.333 101.73C463.528 99.3233 454.96 92.507 453.568 90.0865L453.958 89.8858L453.52 89.7233L453.57 90.0448L453.975 89.889C459.193 93.8198 464.733 98.7045 469.785 102.936L496.26 125.07C501.405 129.366 506.725 133.964 512 138.058V140.554Z" fill="#FEE315"/>
<path d="M512 11.0027C507.93 14.1953 454.195 50.572 453.3 50.706C452.907 50.7648 452.982 50.7115 452.67 50.4438C453.452 49.061 506.51 12.7468 512 8.84106V11.0027Z" fill="#FEE315"/>
<path d="M355.453 0H358.29C361.268 3.2938 367.683 8.62337 371.185 11.8503C382.64 22.4058 394.135 32.9602 405.598 43.5107C406.23 44.0935 407.35 45.309 407.373 46.1942C406.3 45.883 360.478 4.32055 355.453 0Z" fill="#FEE315"/>
<path d="M455.93 82.7716C458.863 83.4984 471.72 90.6084 474.978 92.3316L512 111.758V113.697C500.338 107.577 488.723 101.368 477.155 95.0726C473.05 92.8661 458.473 85.4991 455.93 82.7716Z" fill="#FEE315"/>
<path d="M490.223 0H492.36C487.518 5.53918 481.818 11.3795 476.73 16.7624L448.67 46.1577L448.088 46.1665L447.998 45.729C448.678 44.5145 453.038 39.9692 454.23 38.6657C460.433 31.8447 466.72 25.1005 473.088 18.435L483.415 7.3691C485.67 4.90635 487.848 2.331 490.223 0Z" fill="#FEE315"/>
<path d="M512 34.4705C495.147 41.7535 477.727 48.218 460.86 55.5223C459.66 56.0415 458.155 56.723 456.865 56.8808L456.53 56.548L456.592 56.0903C458.277 55.0635 468.132 51.1285 470.717 50.0153L512 32.6705V34.4705Z" fill="#FEE315"/>
<path d="M512 91.8541C509.758 91.3763 506.473 90.3673 504.16 89.7426L488.768 85.5741C484.703 84.4663 461.288 78.5511 459.475 77.1383L459.488 76.8181C460.94 76.4493 473.178 79.9423 475.693 80.5921L512 90.1666V91.8541Z" fill="#FEE315"/>
<path d="M512 53.9211C508.443 54.9753 459.97 63.8871 459.448 63.8231C458.96 63.7636 459.168 63.8361 458.79 63.3861L458.998 62.8933C460.368 62.3458 471.715 60.2493 473.9 59.8208L512 52.4351V53.9211Z" fill="#FEE315"/>
<path d="M512 72.6513C500.772 72.3543 489.545 71.9495 478.325 71.4373C475.722 71.3323 461.702 71.1498 460.272 70.131L460.332 69.782C462.377 69.4605 473.775 69.9693 476.53 70.054L512 71.134V72.6513Z" fill="#FEE315"/>
<path d="M382.502 0H384.272C387.542 4.2687 390.84 9.3612 393.91 13.8303L407.432 33.3225C409.48 36.287 412.095 40.324 414.232 43.1193L413.087 43.8442C412.262 41.8587 406.03 33.6058 404.457 31.309C397.312 20.8639 389.53 10.5058 382.502 0Z" fill="#FEE315"/>
<path d="M466.977 0H468.947C468.39 1.27328 466.357 4.36172 465.557 5.6506L458.54 16.9811L448.732 32.8582C446.772 36.0585 445.035 39.7353 442.32 42.2848L442.017 42.277L441.98 42.4245L442.245 42.3068C441.97 41.2618 464.432 4.51035 466.977 0Z" fill="#FEE315"/>
<path d="M402.325 0H404.14C407.555 8.93167 411.02 17.8442 414.533 26.7372C415.5 29.2077 419.835 39.3498 419.703 41.3923C419.033 40.7345 418.485 39.8777 418.143 39.0015C413.038 25.9737 407.358 13.0378 402.325 0Z" fill="#FEE315"/>
<path d="M449.135 0H450.623C450.333 1.50048 449.173 4.67318 448.653 6.21045L444.87 17.3882C443.39 21.7237 441.938 26.0685 440.513 30.4225C439.703 32.965 438.335 38.5013 436.928 40.3893L436.548 40.396C436.49 37.301 447.143 5.8708 449.135 0Z" fill="#FEE315"/>
<path d="M418.815 0H420.457C421.355 8.45415 422.76 16.9088 423.815 25.34C424.102 27.6325 425.962 37.8243 425.155 39.3418C423.457 36.196 419.692 5.79152 418.815 0Z" fill="#FEE315"/>
<path d="M433.775 0H435.535C434.967 2.854 434.565 8.00245 434.27 11.0089L432.515 29.125C432.342 30.9715 432.08 38.0415 431.057 38.9485L430.795 38.7775C430.512 37.3798 431.352 28.5737 431.517 26.5572C432.215 17.7001 432.967 8.8476 433.775 0Z" fill="#FEE315"/>
<path d="M414.233 43.1193C414.728 43.4388 414.623 43.597 414.92 44.1488C414.168 44.3493 413.408 44.6468 412.683 44.9373C412.813 44.5708 412.948 44.2065 413.088 43.8443L414.233 43.1193Z" fill="#3C0B82"/>
<path d="M332.123 230.418L432.043 230.328C453.955 230.348 476.33 230.595 498.19 230.357C498.888 238.157 499.45 245.065 499.643 252.878C499.873 262.253 499.548 271.327 499.528 280.655L499.493 329.85C500.228 329.905 500.578 329.895 501.285 330.145C501.965 331.492 501.585 484.022 501.52 500.842C471.445 500.435 440.505 500.793 410.358 500.793L231.421 500.795C233.236 498.563 237.759 494.162 239.966 491.902L256.35 475.103L309.473 420.53C306.083 412.37 302.113 401.427 299.203 392.967C298.6 391.215 298.87 380.507 298.875 377.957L298.97 347.397C301.395 349.82 304.553 353.57 306.928 356.195L327.128 378.9C322.76 363.042 318.865 345.79 314.845 329.688C313.838 324.465 311.648 316.722 310.31 311.402C306.455 309.045 302.333 306.715 298.408 304.465C302.168 296.05 306.75 287.76 310.695 279.415C312.903 275.1 315.183 270.98 317.098 266.51C320.813 257.84 321.56 248.26 325.303 239.664C326.775 236.285 329.618 233.043 332.123 230.418Z" fill="#FEE315"/>
<path d="M332.123 230.418L432.043 230.328C453.955 230.348 476.33 230.595 498.19 230.357C498.888 238.157 499.45 245.065 499.643 252.878C499.873 262.253 499.548 271.327 499.528 280.655L499.493 329.85C495.845 329.525 485.193 329.807 481.095 329.807L442.84 329.818C400.413 329.855 357.223 330.202 314.845 329.688C313.838 324.465 311.648 316.722 310.31 311.402C306.455 309.045 302.333 306.715 298.408 304.465C302.168 296.05 306.75 287.76 310.695 279.415C312.903 275.1 315.183 270.98 317.098 266.51C320.813 257.84 321.56 248.26 325.303 239.664C326.775 236.285 329.618 233.043 332.123 230.418Z" fill="#FAB185"/>
<path d="M369.178 58.0928C376.903 59.0003 387.92 60.8448 395.345 61.308C392.328 67.8008 394.14 75.6615 394.673 82.2918C394.975 85.7985 394.968 89.3253 394.65 92.8305C393.95 100.007 391.288 106.573 388.083 112.949C386.935 113.051 385.32 113.156 384.673 114.229C383.528 116.118 376.053 129.682 376.668 130.876C380.053 137.437 381.89 144.135 384.19 151.057C389.418 149.676 394.665 148.376 399.93 147.157C403.425 146.377 406.21 146.971 407.908 143.405C408.913 141.294 410.38 139.095 411.308 136.923C413.238 132.406 416.04 130.667 413.985 125.719C420.348 113.65 431.203 104.614 443.163 98.407C447.343 102.923 452.955 111.043 456.4 116.119C479.268 150.307 493.598 189.483 498.19 230.357C476.33 230.595 453.955 230.348 432.043 230.328L332.123 230.418C337.748 224.794 352.675 212.468 356.09 206.647C356.785 205.478 357.158 204.146 357.173 202.786C357.29 194.828 347.648 194.039 343.518 189.151C342.168 187.551 343.958 182.398 341.99 180.615C339.215 178.727 338.95 180.332 336.683 177.029C336.57 174.752 336.753 174.943 335.403 173.2C333.528 170.784 326.425 173.531 326.858 169.45C327.4 164.333 333.673 153.97 322.923 154.316C317.118 154.503 306.14 158.691 300.678 154.204C298.578 152.274 294.69 146.897 292.765 144.329C283.998 140.93 275.11 138.003 266.4 134.669C265.948 131.409 264.878 128.519 262.173 126.435C256.358 121.958 245.81 126.961 239.67 129.49C220.369 137.439 198.391 148.636 186.303 166.323C178.647 177.523 169.131 183.757 157.161 189.615C133.666 201.164 110.911 200.964 86.145 193.645C87.4637 195.44 90.8877 198.223 92.7882 199.694C104.285 208.592 118.629 215.972 133.06 218.226C143.318 219.827 154.069 219.036 164.143 216.81C161.437 220.506 154.428 228.115 150.669 230.559C149.212 230.054 122.514 230.377 118.329 230.377L13.9009 230.39C14.2529 226.456 14.7205 222.533 15.3033 218.627C24.5362 154.384 59.2627 96.5693 111.64 58.241C134.233 57.9603 157.473 58.1848 180.108 58.2005L298.86 58.208L346.4 58.2548C353.315 58.274 362.345 58.6588 369.003 58.3748L369.178 58.0928Z" fill="#F74C89"/>
<path d="M13.9007 230.39L118.329 230.377C122.514 230.377 149.212 230.054 150.669 230.559C122.846 253.253 87.3156 264.288 51.5316 261.355C60.4178 266.218 66.4768 269.55 76.0673 273.195C105.44 284.11 137.557 285.23 167.619 276.388C173.631 274.63 191.806 268.245 196.655 264.603L197.092 265.353C184.989 278.993 167.627 289.023 150.073 293.713L148.986 294.54C179.079 295.04 204.773 291.57 232.065 278.078C233.522 279.575 234.793 280.863 236.343 282.255C224.275 289.9 211.867 298.643 199.902 306.595C188.943 313.878 176.576 321.853 166.247 329.84C151.964 341.665 135.632 358.888 125.655 374.665C106.646 379.015 87.6893 383.585 68.7871 388.375C69.9901 389.073 87.1891 388.56 90.1206 388.79C99.0198 388.828 107.919 388.738 116.815 388.518C115.585 390.56 114.386 392.625 113.22 394.705L10.488 430.928L10.4447 361.603L10.4456 340.728C10.4476 338.213 10.3069 332.44 10.6001 330.348C11.1924 329.81 11.8823 329.938 12.8361 329.86C13.0951 314.068 12.7153 298.175 12.8409 282.37C12.9156 272.985 12.4269 263.605 12.5426 254.19C12.6496 246.241 13.1028 238.3 13.9007 230.39Z" fill="#FAB185"/>
<path d="M12.8361 329.86C15.8636 329.623 20.751 329.785 23.8781 329.795L43.9013 329.793L109.125 329.783L149.769 329.813L160.592 329.785C161.833 329.775 165.2 329.68 166.247 329.84C151.964 341.665 135.632 358.888 125.655 374.665C106.646 379.015 87.6893 383.585 68.7871 388.375C69.9901 389.073 87.1891 388.56 90.1206 388.79C99.0198 388.828 107.919 388.738 116.815 388.518C115.585 390.56 114.386 392.625 113.22 394.705L10.488 430.928L10.4447 361.603L10.4456 340.728C10.4476 338.213 10.3069 332.44 10.6001 330.348C11.1924 329.81 11.8823 329.938 12.8361 329.86Z" fill="#FEE315"/>
<path d="M68.7868 388.375C69.9898 389.073 87.1888 388.56 90.1203 388.79C88.2873 388.985 67.9418 389.13 67.2793 388.893C67.482 388.66 68.4663 388.428 68.7868 388.375Z" fill="#805650"/>
<path d="M148.986 294.54C148.769 294.518 148.075 294.515 147.932 294.345C148.058 294.025 149.774 293.775 150.072 293.713L148.986 294.54Z" fill="#581292"/>
<path d="M265.365 136.296C274.193 139.307 282.7 142.616 291.425 145.664C294.298 149.094 296.885 153.8 300.56 156.38C307.345 161.144 321.96 154.366 325.828 156.471C330.275 158.89 323.99 166.784 325.27 170.735C325.838 172.483 327.13 173.229 328.665 174.03C330.295 173.783 331.453 173.37 332.375 174.955C332.16 176.788 331.125 180.05 330.605 181.918L327.81 192.291C330.588 189.505 333.553 186.821 336.465 184.167C337.41 183.306 339.053 181.576 340.328 181.764C341.923 183.731 340.5 188.529 342.065 190.367C344.998 193.89 353.618 196.569 355.255 200.83C357.643 207.048 345.388 212.468 341.515 214.419C324.938 222.776 307.268 228.62 289.485 233.688C295.715 237.331 314.115 250.015 316.73 255.925C318.078 258.97 316.348 263.235 315.165 266.125C313.725 269.64 309.918 279.093 306.455 280.385C305.553 280.723 304.245 280.748 303.383 280.263C302.223 279.61 301.385 277.965 300.885 276.79C299.45 273.42 298.608 269.593 297.585 266.073L291.815 246.254L291.213 247.159C291.498 253.91 291.195 263.998 291.1 270.84C291 280.53 290.958 290.223 290.973 299.915C284.955 296.685 278.35 292.573 272.425 289.045L247.732 274.513C255.95 268.853 264.9 263.325 273.283 257.73C271.868 250.55 270.758 243.107 269.348 235.833L278.993 232.632C287.845 229.688 285.105 226.978 282.68 219.886C281.933 223.644 281.29 225.598 277.508 227.253C269.113 230.772 259.895 229.555 251.278 227.178C242.521 224.762 236.775 211.391 247.12 207.124C253.2 204.615 259.82 208.266 265.365 211.017C265.98 210.968 265.673 211.051 266.243 210.475C266.708 208.928 265.995 207.885 265.34 206.386C271.455 207.334 277.573 208.251 283.695 209.134L259.38 190.095C260.845 182.533 262.238 174.888 263.09 167.233C264.515 154.403 252.07 153.43 242.802 152.771C248.975 145.746 257.265 140.686 265.365 136.296Z" fill="#6735C9"/>
<path d="M291.213 247.159C291.218 246.776 291.165 245.664 291.435 245.375C291.525 245.365 291.483 245.357 291.56 245.399C291.768 245.721 291.75 245.865 291.815 246.254L291.213 247.159Z" fill="#581292"/>
<path d="M289.6 148.412C292.64 152.679 294.375 158.512 295.932 163.547C304.3 167.014 308.712 167.844 312.327 176.373C310.857 174.739 309.6 173.275 307.765 172.056C299.477 166.554 288.15 167.229 280.875 173.991C278.917 175.819 277.297 177.977 276.087 180.366L275.585 180.037C277.687 169.616 280.965 155.281 289.6 148.412Z" fill="#3C0B82"/>
<path d="M261.127 227.636C256.12 225.687 253.55 225.682 249.254 221.4C245.793 217.952 244.899 210.188 251.402 210.79C254.722 211.098 257.767 215.068 260.917 216.182C262.402 216.708 263.635 215.947 265.132 215.767C267.415 215.648 274.095 214.414 275.505 216.339C275.315 219.207 270.045 219.28 267.44 223.326L267.245 223.635C258.995 225.029 253.02 222.325 253.822 213.042C251.492 212.745 249.251 212.895 248.441 215.434C246.282 222.196 257.277 225.65 261.677 227.224L261.127 227.636Z" fill="#3C0B82"/>
<path d="M324.922 163.707C326.742 165.971 320.71 171.328 319.212 172.758C318.967 172.495 319.02 172.335 319.247 172.005C321.385 168.906 321.512 165.744 324.922 163.707Z" fill="#3C0B82"/>
<path d="M276.088 180.366L275.998 180.618C275.898 180.887 275.68 181.753 275.388 181.85C275.043 181.617 275.48 180.321 275.585 180.037L276.088 180.366Z" fill="#581292"/>
<path d="M261.677 227.224C261.94 227.278 262.682 227.361 262.795 227.665C262.527 227.942 261.447 227.693 261.127 227.636L261.677 227.224Z" fill="#581292"/>
<path d="M210.96 254.713C212.041 255.043 216.46 257.883 217.675 258.62C222.467 261.55 227.276 264.45 232.102 267.325C257.505 282.295 283.627 297.333 308.76 312.66C309.637 317.118 311.272 322.908 312.412 327.425L319.955 357.715C321.047 362.193 322.412 367.118 323.315 371.585C322.112 370.798 320.727 368.955 319.71 367.863C304.485 351.505 290.662 333.84 274.725 318.173C269.87 313.403 265.072 308.543 260.28 303.723L210.96 254.713Z" fill="#C829EE"/>
<path d="M148.878 27.8405C150.918 26.9902 152.406 26.2005 154.605 26.4585C163.193 27.4667 171.819 28.788 180.371 30.053L212.234 34.6115L291.857 45.972L364.602 55.9787L383.91 58.4732C387.255 58.8875 392.027 59.3332 395.242 59.9767L395.5 60.2355L395.345 61.308C387.92 60.8447 376.902 59.0002 369.177 58.0927C316.472 51.3 263.82 44.1067 211.224 36.514L177.501 31.7462C167.984 30.3695 158.444 28.8742 148.878 27.8405Z" fill="#FEE315"/>
<path d="M382.933 121.336C385.89 122.59 389.748 124.682 392.673 126.169C398.49 129.165 404.345 132.09 410.235 134.943C409.113 137.352 406.683 141.969 405.358 144.153C403.705 145.099 401.175 144.03 399.713 143.104C394.883 140.046 381.93 135.217 378.56 131.452C378.053 129.341 381.755 123.754 382.933 121.336Z" fill="#FEE315"/>
<path d="M387.578 114.747C389.063 114.935 391.07 115.973 392.405 116.69C398.955 120.205 406.393 122.914 412.483 127.1C413.983 128.131 411.995 132.328 410.87 133.214L410.248 133.031C401.548 128.465 392.398 124.268 383.805 119.635C384.86 117.407 385.313 115.664 387.578 114.747Z" fill="#FEE315"/>
<path d="M380.998 135.617C382.168 136.095 383.638 137 384.85 137.579C390.083 140.076 394.958 142.858 400.285 145.18C399.093 145.509 398.003 145.778 396.808 146.08C396.698 146.11 396.585 146.141 396.475 146.172L395.498 146.409C392.14 147.236 388.743 148.154 385.385 148.94C384.085 145.115 382.095 139.386 380.998 135.617Z" fill="#FEE315"/>
<path d="M196.655 264.602C197.565 264.237 198.135 264.065 197.253 265.147L197.092 265.352L196.655 264.602Z" fill="#D5838E"/>
</g>
<defs>
<clipPath id="clip0_1510_5379">
<rect width="512" height="512" fill="white"/>
</clipPath>
</defs>
</svg>
