<svg width="180" height="180" viewBox="0 0 180 180" fill="none" xmlns="http://www.w3.org/2000/svg">
<g filter="url(#filter0_i_765_427)">
<rect width="180" height="180" rx="18.4615" fill="white"/>
<rect width="160" height="160" transform="translate(10 10)" fill="white"/>
<path fill-rule="evenodd" clip-rule="evenodd" d="M88.7152 53.1208L88.712 53.1293L81.677 64.8538L80.7415 99.4751H98.5178L98.5443 99.4958L102.771 102.783L102.808 102.812V106.222L82.0323 112.17L79.2837 113.086L78.3838 142.541L67.4215 131.103L67.3943 131.074V115.904C67.3198 115.885 67.224 115.876 67.1047 115.88C66.9507 115.884 66.765 115.909 66.5497 115.952C66.1192 116.039 65.5795 116.199 64.9557 116.418C63.7082 116.855 62.135 117.519 60.445 118.27C58.754 119.021 57.2813 119.69 56.0948 120.327C54.915 120.96 54.0283 121.557 53.4915 122.164L42.6977 151.729L42.69 151.751L42.6728 151.767L35.1218 158.846L35.0712 158.835L30.7414 157.872L40.6337 125.84L42.463 120.18L13.9774 124.558L13.963 124.56L13.9484 124.558C13.3969 124.479 12.5462 124.314 11.7845 124.073C11.4038 123.953 11.042 123.812 10.7501 123.653C10.4617 123.496 10.2259 123.312 10.118 123.096C10.0623 122.984 10.03 122.82 10.0136 122.622C9.99702 122.421 9.99595 122.176 10.0085 121.896C10.0335 121.335 10.1137 120.628 10.2398 119.849C10.4919 118.29 10.9284 116.432 11.4784 114.861L11.4969 114.808L11.5514 114.797L48.1198 107.295L64.5813 54.9351L64.5983 54.8808L90.1875 49.1943L88.7152 53.1208ZM57.013 105.804L65.2495 104.35L63.8335 86.8871L63.6425 86.8626L57.013 105.804Z" fill="#0A0A0A"/>
<path fill-rule="evenodd" clip-rule="evenodd" d="M156.629 21.1765L164.122 26.6712L117.308 56.962L170 89.5242H156.546L156.524 89.5127L130.863 75.8465L125.37 74.8657L125.355 74.8627L125.341 74.8552L105.858 64.282L91.7287 95.976L89.368 98.2382L87.692 102.083L87.6677 102.099L84.7 104.044L83.8787 100.861L83.8715 100.833L83.8807 100.806L98.0342 57.9512C98.0127 57.9022 97.965 57.8117 97.8777 57.6797C97.7712 57.519 97.6097 57.3007 97.376 57.028C97.215 56.8402 97.1387 56.642 97.1235 56.435C97.1082 56.2305 97.1525 56.0225 97.222 55.814C97.2912 55.6057 97.389 55.3887 97.4847 55.168C97.5815 54.9452 97.678 54.7162 97.75 54.4765C97.816 54.2567 97.9755 54.0417 98.179 53.8412C98.3837 53.6395 98.6405 53.445 98.9115 53.2667C99.4355 52.9222 100.023 52.6327 100.421 52.4642L104.582 40.27L80.809 44.6727L80.7775 44.655L76.472 42.2085H70.0717L62.085 36.345L156.555 21.1587L156.596 21.1523L156.629 21.1765ZM117.275 36.6285L117.22 36.6412L117.204 36.6947L113.14 49.6067L137.904 31.9926L137.825 31.8168L117.275 36.6285Z" fill="#0A0A0A"/>
</g>
<defs>
<filter id="filter0_i_765_427" x="0" y="0" width="180" height="186.923" filterUnits="userSpaceOnUse" color-interpolation-filters="sRGB">
<feFlood flood-opacity="0" result="BackgroundImageFix"/>
<feBlend mode="normal" in="SourceGraphic" in2="BackgroundImageFix" result="shape"/>
<feColorMatrix in="SourceAlpha" type="matrix" values="0 0 0 0 0 0 0 0 0 0 0 0 0 0 0 0 0 0 127 0" result="hardAlpha"/>
<feOffset dy="6.92308"/>
<feGaussianBlur stdDeviation="4.61538"/>
<feComposite in2="hardAlpha" operator="arithmetic" k2="-1" k3="1"/>
<feColorMatrix type="matrix" values="0 0 0 0 0 0 0 0 0 0 0 0 0 0 0 0 0 0 0.15 0"/>
<feBlend mode="normal" in2="shape" result="effect1_innerShadow_765_427"/>
</filter>
</defs>
</svg>
