<svg width="64" height="64" viewBox="0 0 64 64" fill="none" xmlns="http://www.w3.org/2000/svg">
<rect width="64" height="64" rx="8" fill="url(#paint0_linear_1508_279)"/>
<path fill-rule="evenodd" clip-rule="evenodd" d="M31.5895 20.2149L31.5885 20.2176L29.3405 23.9641L29.0416 35.0272H34.7219L34.7303 35.0338L36.0808 36.0841L36.0929 36.0936V37.183L29.454 39.0838L28.5758 39.3766L28.2882 48.7887L24.7852 45.1336L24.7765 45.1244V40.2769C24.7527 40.2709 24.7221 40.2681 24.684 40.2692C24.6348 40.2706 24.5755 40.2784 24.5067 40.2923C24.3691 40.32 24.1966 40.3713 23.9973 40.4411C23.5987 40.5808 23.096 40.7929 22.5559 41.0329C22.0156 41.2731 21.545 41.4868 21.1658 41.6902C20.7889 41.8925 20.5055 42.0832 20.334 42.2772L16.8849 51.7246L16.8824 51.7317L16.8769 51.7368L14.464 53.9988L14.4479 53.9952L13.0643 53.6877L16.2254 43.452L16.8099 41.6432L7.70749 43.0421L7.70289 43.0429L7.69822 43.0422C7.52198 43.0171 7.25013 42.9642 7.00675 42.8872C6.88511 42.8488 6.76949 42.804 6.6762 42.7531C6.58407 42.7029 6.50871 42.644 6.47422 42.575C6.45642 42.5394 6.44612 42.4868 6.44088 42.4236C6.43557 42.3595 6.43523 42.2811 6.43923 42.1915C6.44722 42.0124 6.47287 41.7866 6.51314 41.5375C6.59369 41.0393 6.73318 40.4457 6.90895 39.9435L6.91484 39.9267L6.93228 39.9231L18.6175 37.526L23.8777 20.7947L23.8831 20.7773L32.06 18.9602L31.5895 20.2149ZM21.4593 37.0494L24.0912 36.5849L23.6387 31.0047L23.5777 30.9969L21.4593 37.0494Z" fill="url(#paint1_linear_1508_279)" stroke="#FFC70F" stroke-opacity="0.7" stroke-width="0.4"/>
<path fill-rule="evenodd" clip-rule="evenodd" d="M53.291 10.0077L55.6853 11.7635L40.7264 21.4428L57.5637 31.8479H53.2646L53.2576 31.8442L45.0579 27.4772L43.3025 27.1638L43.2976 27.1629L43.2931 27.1605L37.0677 23.7818L32.5526 33.9095L31.7982 34.6324L31.2627 35.8611L31.2549 35.8662L30.3066 36.4875L30.0441 35.4705L30.0418 35.4616L30.0448 35.4528L34.5675 21.7589C34.5606 21.7432 34.5453 21.7143 34.5175 21.6721C34.4834 21.6208 34.4318 21.551 34.3571 21.4639C34.3057 21.4039 34.2813 21.3405 34.2764 21.2744C34.2716 21.209 34.2857 21.1426 34.3079 21.0759C34.33 21.0094 34.3613 20.94 34.3919 20.8695C34.4228 20.7983 34.4536 20.7252 34.4766 20.6485C34.4977 20.5783 34.5487 20.5096 34.6137 20.4456C34.6791 20.3811 34.7612 20.3189 34.8478 20.262C35.0152 20.1519 35.203 20.0594 35.3301 20.0055L36.6599 16.1089L29.0632 17.5158L29.0532 17.5101L27.6774 16.7284H25.6322L23.0801 14.8547L53.2674 10.002L53.2805 10L53.291 10.0077ZM40.7158 14.9453L40.6983 14.9494L40.693 14.9665L39.3943 19.0924L47.3076 13.4639L47.2823 13.4078L40.7158 14.9453Z" fill="url(#paint2_linear_1508_279)" stroke="#FFC70F" stroke-opacity="0.7" stroke-width="0.4"/>
<defs>
<linearGradient id="paint0_linear_1508_279" x1="0" y1="0" x2="64" y2="64" gradientUnits="userSpaceOnUse">
<stop stop-color="#0C022B"/>
<stop offset="0.557692" stop-color="#370D75"/>
<stop offset="0.975962" stop-color="#2E0877"/>
</linearGradient>
<linearGradient id="paint1_linear_1508_279" x1="21.2647" y1="18.9602" x2="21.2647" y2="53.9988" gradientUnits="userSpaceOnUse">
<stop stop-color="#4A09AE"/>
<stop offset="0.211538" stop-color="#AC20FD"/>
<stop offset="0.350962" stop-color="#FFA070"/>
<stop offset="0.504808" stop-color="#FFD02F"/>
<stop offset="0.649038" stop-color="#FF5A8B"/>
<stop offset="0.875" stop-color="#4F09B8"/>
</linearGradient>
<linearGradient id="paint2_linear_1508_279" x1="40.3219" y1="10" x2="40.3219" y2="36.4875" gradientUnits="userSpaceOnUse">
<stop stop-color="#4A09AE"/>
<stop offset="0.211538" stop-color="#AC20FD"/>
<stop offset="0.350962" stop-color="#FFA070"/>
<stop offset="0.504808" stop-color="#FFD02F"/>
<stop offset="0.649038" stop-color="#FF5A8B"/>
<stop offset="0.875" stop-color="#4F09B8"/>
</linearGradient>
</defs>
</svg>
