<svg width="64" height="64" viewBox="0 0 64 64" fill="none" xmlns="http://www.w3.org/2000/svg">
<path fill-rule="evenodd" clip-rule="evenodd" d="M31.5337 18.6079L31.5326 18.611L28.978 22.8684L28.6383 35.4401H35.0932L35.1029 35.4476L36.6375 36.6411L36.6512 36.6519V37.8899L29.107 40.0499L28.109 40.3826L27.7822 51.0782L23.8016 46.9246L23.7917 46.9142V41.4057C23.7646 41.3989 23.7298 41.3957 23.6865 41.397C23.6306 41.3986 23.5632 41.4074 23.485 41.4232C23.3287 41.4547 23.1327 41.513 22.9062 41.5923C22.4532 41.751 21.8819 41.9921 21.2683 42.2648C20.6542 42.5377 20.1194 42.7805 19.6886 43.0117C19.2602 43.2416 18.9382 43.4583 18.7433 43.6788L14.8239 54.4144L14.8211 54.4225L14.8148 54.4283L12.0729 56.9988L12.0545 56.9948L10.4823 56.6453L14.0744 45.0137L14.7386 42.9583L4.39497 44.548L4.38974 44.5488L4.38443 44.5481C4.18416 44.5195 3.87524 44.4594 3.59867 44.372C3.46044 44.3283 3.32906 44.2774 3.22305 44.2196C3.11835 44.1625 3.03271 44.0956 2.99352 44.0172C2.97329 43.9767 2.96159 43.9169 2.95564 43.8451C2.9496 43.7723 2.94921 43.6832 2.95375 43.5814C2.96284 43.3779 2.99199 43.1212 3.03775 42.8382C3.12929 42.2721 3.28779 41.5975 3.48753 41.0268L3.49423 41.0077L3.51404 41.0036L16.7927 38.2797L22.7702 19.2667L22.7764 19.247L32.0684 17.1821L31.5337 18.6079ZM20.022 37.7381L23.0129 37.2103L22.4987 30.8691L22.4293 30.8602L20.022 37.7381Z" fill="url(#paint0_linear_1508_4288)"/>
<path fill-rule="evenodd" clip-rule="evenodd" d="M56.1945 7.00879L58.9153 9.00401L41.9165 20.0032L61.0498 31.8272H56.1644L56.1565 31.823L46.8386 26.8605L44.8439 26.5044L44.8383 26.5033L44.8332 26.5006L37.7588 22.6612L32.628 34.1699L31.7708 34.9914L31.1622 36.3877L31.1534 36.3935L30.0757 37.0995L29.7775 35.9439L29.7749 35.9337L29.7782 35.9237L34.9177 20.3624C34.9098 20.3446 34.8925 20.3118 34.8608 20.2638C34.8222 20.2054 34.7635 20.1262 34.6786 20.0272C34.6202 19.959 34.5925 19.887 34.5869 19.8118C34.5814 19.7376 34.5975 19.662 34.6227 19.5863C34.6479 19.5107 34.6834 19.4319 34.7181 19.3518C34.7533 19.2709 34.7883 19.1877 34.8144 19.1007C34.8384 19.0209 34.8963 18.9428 34.9702 18.87C35.0446 18.7967 35.1378 18.7261 35.2362 18.6614C35.4265 18.5363 35.6398 18.4312 35.7843 18.37L37.2955 13.942L28.6628 15.5407L28.6514 15.5343L27.088 14.6459H24.7639L21.8638 12.5168L56.1677 7.0023L56.1825 7L56.1945 7.00879ZM41.9044 12.6197L41.8846 12.6243L41.8785 12.6438L40.4028 17.3324L49.3951 10.9363L49.3664 10.8725L41.9044 12.6197Z" fill="url(#paint1_linear_1508_4288)"/>
<defs>
<linearGradient id="paint0_linear_1508_4288" x1="19.8009" y1="17.1821" x2="19.8009" y2="56.9988" gradientUnits="userSpaceOnUse">
<stop stop-color="#4A09AE"/>
<stop offset="0.211538" stop-color="#AC20FD"/>
<stop offset="0.350962" stop-color="#FFA070"/>
<stop offset="0.504808" stop-color="#FFD02F"/>
<stop offset="0.649038" stop-color="#FF5A8B"/>
<stop offset="0.875" stop-color="#4F09B8"/>
</linearGradient>
<linearGradient id="paint1_linear_1508_4288" x1="41.4568" y1="7" x2="41.4568" y2="37.0995" gradientUnits="userSpaceOnUse">
<stop stop-color="#4A09AE"/>
<stop offset="0.211538" stop-color="#AC20FD"/>
<stop offset="0.350962" stop-color="#FFA070"/>
<stop offset="0.504808" stop-color="#FFD02F"/>
<stop offset="0.649038" stop-color="#FF5A8B"/>
<stop offset="0.875" stop-color="#4F09B8"/>
</linearGradient>
</defs>
</svg>
